<?xml version="1.0" encoding="utf-8"?>
<!-- Generator: Adobe Illustrator 27.8.0, SVG Export Plug-In . SVG Version: 6.00 Build 0)  -->
<svg version="1.1" id="Layer_1" xmlns="http://www.w3.org/2000/svg" xmlns:xlink="http://www.w3.org/1999/xlink" x="0px" y="0px"
	 viewBox="0 0 253 183.7" style="enable-background:new 0 0 253 183.7;" xml:space="preserve">
<style type="text/css">
	.st0{fill:#602A0E;}
	.st1{fill:#EA955B;}
	.st2{fill:#C95627;}
</style>
<path class="st0" d="M56,19.1V9.8H11.2v105.1H0v23.2h11.2v45.6H56v-43H44.7v-25.2H56V64.8l13.8,10.5h60.1L56,19.1z M196,26.3H182
	v19.1H196v69.6h-11.2v2.2l-47.8-36.4H76.8l49.8,37.7h-8l21.4,15.8h7.3l48.8,37v12.6h44.8v-43h-11.3v-25.2h11.3V9.8H196V26.3z"/>
<path class="st1" d="M63.3,9.3V0H18.6v105.1H7.4v23.2h11.2v45.6h44.8v-43H52v-25.2h11.3V55.1l13.8,10.5h60.1L63.3,9.3z M203.3,16.5
	h-14.1v19.1h14.1v69.6h-11.2v2.2l-47.8-36.4H84.1l49.8,37.7h-8l21.4,15.8h7.3l48.8,37v12.6h44.8v-43h-11.3v-25.2h11.3V0h-44.8V16.5z
	"/>
<path class="st2" d="M68.2,19.1V9.8H23.4v105.1H12.3v23.2h11.2v45.6h44.8v-43H56.9v-25.2h11.3V64.8L82,75.3h60.1L68.2,19.1z
	 M208.2,26.3h-14.1v19.1h14.1v69.6H197v2.2l-47.8-36.4H89l49.8,37.7h-8l21.4,15.8h7.3l48.8,37v12.6H253v-43h-11.3v-25.2H253V9.8
	h-44.8V26.3z"/>
</svg>
