<?xml version="1.0" standalone="no"?>
<!DOCTYPE svg PUBLIC "-//W3C//DTD SVG 20010904//EN"
 "http://www.w3.org/TR/2001/REC-SVG-20010904/DTD/svg10.dtd">
<svg version="1.0" xmlns="http://www.w3.org/2000/svg"
 width="500.000000pt" height="500.000000pt" viewBox="0 0 500.000000 500.000000"
 preserveAspectRatio="xMidYMid meet">

<g transform="translate(0.000000,500.000000) scale(0.100000,-0.100000)"
fill="#000000" stroke="none">
<path d="M2317 4145 c-105 -15 -155 -28 -72 -20 137 14 310 16 407 6 161 -16
402 -82 518 -141 45 -23 190 -119 190 -125 0 -2 -28 12 -62 32 -217 125 -474
199 -723 210 -434 19 -840 -128 -1148 -417 -279 -262 -454 -596 -496 -949 -7
-52 -16 -101 -21 -110 -11 -18 -7 25 17 189 18 131 36 202 74 299 39 99 150
299 211 381 60 81 221 245 308 315 65 53 266 175 288 175 6 0 14 4 17 10 11
17 -43 -8 -144 -67 -358 -209 -644 -573 -756 -963 -52 -180 -67 -283 -68 -455
-2 -333 86 -621 278 -919 213 -329 553 -576 936 -680 150 -40 303 -54 679 -60
265 -4 363 -9 425 -22 194 -40 336 23 421 188 24 45 28 65 28 133 1 44 -3 94
-8 111 -7 29 -6 31 34 49 85 38 208 201 319 422 127 255 200 577 187 838 -13
290 -111 569 -299 852 -91 138 -311 362 -437 445 -182 121 -386 207 -585 247
-208 42 -346 49 -518 26z m263 -119 c0 -7 -9 -25 -21 -40 -15 -19 -30 -26 -54
-26 -19 0 -37 5 -40 10 -3 6 4 10 18 10 14 0 37 13 53 29 33 32 44 37 44 17z
m824 -181 c11 -8 16 -15 10 -15 -5 0 -18 7 -28 15 -11 8 -16 15 -10 15 5 0 18
-7 28 -15z m81 -65 c10 -11 16 -20 13 -20 -3 0 -13 9 -23 20 -10 11 -16 20
-13 20 3 0 13 -9 23 -20z m-956 -60 l77 0 13 -103 13 -103 72 -17 c39 -10 81
-20 93 -23 17 -5 25 1 37 23 9 15 26 40 40 55 l24 27 56 -30 c31 -17 56 -32
56 -33 0 -2 -13 -27 -30 -57 -16 -30 -30 -57 -30 -60 0 -3 24 -22 53 -42 30
-21 64 -48 76 -61 l23 -25 94 50 c52 28 98 48 103 44 6 -3 31 -37 56 -75 25
-38 51 -72 56 -75 11 -8 -64 -118 -104 -151 l-29 -24 17 -43 c9 -24 24 -74 34
-113 15 -60 20 -69 42 -72 22 -2 141 -28 180 -38 14 -4 16 -16 12 -72 -8 -135
-2 -126 -96 -146 -45 -9 -92 -19 -103 -22 -17 -3 -23 -14 -28 -46 -4 -24 -19
-74 -35 -112 l-28 -69 75 -72 75 -72 -33 -49 c-19 -27 -47 -66 -64 -87 -36
-45 -46 -45 -148 13 -38 22 -72 40 -75 40 -3 0 -34 -24 -69 -54 -35 -30 -68
-56 -74 -58 -12 -4 -9 -12 24 -90 l16 -37 -33 -19 c-63 -38 -70 -37 -107 19
-37 57 -27 56 -156 23 l-71 -18 -19 -93 -18 -93 -40 -2 c-36 -1 -139 -1 -157
1 -11 1 -42 140 -37 166 5 21 2 25 -21 25 -23 0 -118 26 -163 45 -11 4 -18 0
-24 -17 -4 -13 -7 -27 -6 -31 1 -5 -2 -6 -7 -2 -6 3 -17 -8 -26 -25 -18 -36
-20 -36 -63 -10 -18 11 -39 20 -47 20 -23 0 -18 25 16 85 22 40 26 53 15 49
-9 -3 -16 -2 -16 3 0 9 -131 113 -143 113 -3 0 -46 -22 -95 -49 l-89 -48 -62
74 c-34 41 -65 81 -68 89 -3 9 24 41 70 85 l76 71 -30 61 c-17 34 -33 83 -36
113 -5 47 -9 54 -27 53 -21 0 -21 -1 -1 -9 18 -8 18 -9 -5 -9 -14 0 -34 4 -45
9 -18 8 -18 9 5 10 14 1 -8 11 -50 21 -41 10 -81 17 -87 14 -10 -3 -13 21 -13
100 l0 105 28 6 c15 3 52 12 83 20 31 8 66 14 77 14 15 0 21 9 27 36 3 20 19
68 34 108 l28 72 -63 68 c-35 37 -66 76 -69 87 -5 14 11 41 57 99 35 44 68 80
73 80 6 -1 50 -20 100 -44 l89 -43 29 26 c16 14 37 34 45 44 9 9 21 17 28 17
6 0 19 9 29 20 18 20 18 22 -9 77 -15 30 -26 57 -24 58 23 20 110 65 117 61 5
-4 24 -31 41 -61 l31 -54 32 14 c18 7 58 19 90 25 40 9 57 18 57 29 0 9 10 58
21 109 l22 94 30 -6 c16 -3 64 -6 106 -6z m-1088 -774 c-15 -18 -46 -26 -62
-15 -10 6 -7 9 11 9 14 0 32 5 40 10 21 14 24 12 11 -4z m2476 -476 c-4 -124
-10 -165 -40 -282 -47 -182 -148 -408 -184 -408 -8 0 -13 3 -11 8 2 4 25 50
52 102 119 231 157 386 164 660 5 159 7 176 14 125 5 -33 7 -125 5 -205z m145
61 c-24 -32 -62 -38 -85 -13 -16 18 -16 18 13 14 22 -3 36 2 57 24 34 35 46
16 15 -25z m-2992 34 c0 -22 -45 -65 -67 -65 -10 0 -29 9 -43 19 l-24 19 35
-1 c23 0 47 7 65 21 35 26 34 26 34 7z m356 -371 c-9 -23 -69 -44 -101 -35
-47 12 -38 26 16 26 43 0 54 4 67 24 16 24 29 13 18 -15z m2253 -533 c-35 -62
-46 -65 -316 -68 -134 -2 -243 -1 -243 2 0 20 36 69 63 85 29 18 52 20 275 20
l243 0 -22 -39z m-2003 -252 c153 -115 418 -228 590 -251 78 -11 97 -19 75
-32 -5 -3 -60 3 -122 15 -251 45 -503 180 -701 376 -133 130 -147 161 -21 44
55 -51 136 -119 179 -152z m2034 80 c-22 -40 -70 -60 -130 -54 -144 14 -246
16 -281 6 -106 -32 -202 -165 -203 -281 -1 -156 143 -243 288 -175 31 15 44
31 69 82 38 83 35 150 -9 193 -65 63 -169 26 -180 -65 -8 -58 12 -80 70 -79
51 1 57 -7 24 -30 -36 -25 -76 -20 -110 14 -29 29 -30 34 -26 96 4 59 7 68 41
101 33 33 43 37 99 41 53 3 67 1 91 -18 67 -53 92 -161 58 -250 -45 -120 -142
-167 -288 -141 -95 17 -138 58 -158 149 -3 18 -11 30 -16 26 -14 -8 -11 -66 6
-98 9 -16 14 -30 12 -32 -9 -9 -571 -3 -580 6 -19 21 -40 83 -44 130 -7 69 10
148 45 214 32 58 118 138 170 156 58 21 798 25 869 5 69 -20 112 -19 148 4 39
25 48 26 35 0z"/>
<path d="M2476 3463 c-4 -9 0 -23 9 -32 13 -14 17 -14 31 1 9 9 14 24 11 32
-8 21 -43 20 -51 -1z"/>
<path d="M2473 3364 c4 -4 18 -9 30 -10 99 -10 137 -17 142 -23 2 -5 -15 -5
-38 0 -23 4 -68 8 -100 9 -36 0 -56 4 -52 10 17 28 -218 -26 -237 -54 -4 -6
-8 -8 -8 -3 0 9 -68 -25 -122 -61 -21 -13 -35 -29 -31 -35 3 -5 2 -7 -4 -4
-14 9 -105 -82 -96 -96 3 -5 1 -7 -5 -3 -6 3 -20 -7 -31 -23 -30 -42 -26 -49
11 -15 l31 29 -34 -48 c-36 -52 -53 -68 -43 -43 3 9 3 16 0 16 -10 0 -62 -112
-77 -165 -9 -31 -14 -98 -14 -180 0 -113 3 -139 24 -198 14 -37 32 -75 42 -85
9 -10 29 -38 44 -63 42 -67 164 -182 241 -227 116 -67 196 -87 354 -87 111 0
148 4 205 23 104 32 190 87 280 177 140 141 194 262 202 451 6 129 -7 187 -67
302 -20 39 -36 72 -34 72 2 0 13 -10 25 -22 12 -13 18 -16 14 -8 -25 46 -73
108 -120 154 -71 72 -278 188 -304 172 -6 -4 -11 -3 -11 3 0 5 -24 14 -52 20
-82 16 -174 24 -165 15z m-203 -68 c0 -2 -9 -6 -20 -9 -11 -3 -18 -1 -14 4 5
9 34 13 34 5z m580 -46 c8 -5 11 -10 5 -10 -5 0 -17 5 -25 10 -8 5 -10 10 -5
10 6 0 17 -5 25 -10z m-691 -4 c-2 -2 -15 -9 -29 -15 -24 -11 -24 -11 -6 3 16
13 49 24 35 12z m451 -72 c143 -33 273 -143 323 -273 52 -137 61 -249 26 -355
-36 -109 -101 -166 -189 -166 l-43 0 7 -70 c6 -65 5 -70 -16 -84 -13 -7 -38
-16 -55 -20 l-33 -5 0 54 c0 54 0 55 -30 55 -29 0 -30 -1 -30 -49 0 -63 -15
-76 -82 -68 -28 4 -53 8 -55 11 -2 2 -6 25 -7 51 -3 47 -17 67 -46 62 -11 -1
-16 -17 -18 -55 -3 -49 -5 -52 -30 -52 -21 0 -24 -2 -12 -10 13 -8 12 -10 -3
-10 -47 0 -57 17 -57 95 l0 75 -52 0 c-37 0 -48 3 -38 10 11 7 9 11 -14 19
-15 6 -32 8 -38 5 -6 -4 -8 -3 -5 3 3 5 -10 25 -30 44 -27 26 -33 28 -24 12 6
-13 9 -23 6 -23 -3 0 -18 26 -33 58 -51 111 -41 296 25 426 40 80 164 195 247
229 117 49 198 57 306 31z m411 -51 c20 -21 39 -47 42 -58 4 -12 -4 -6 -21 15
-15 19 -43 50 -62 69 -19 18 -26 29 -15 23 11 -6 36 -28 56 -49z m-1190 -280
c-8 -15 -10 -15 -11 -2 0 17 10 32 18 25 2 -3 -1 -13 -7 -23z m989 -483 c-8
-5 -22 -10 -30 -10 -13 0 -13 1 0 10 8 5 22 10 30 10 13 0 13 -1 0 -10z"/>
<path d="M2470 3116 c0 -19 4 -46 10 -60 8 -21 6 -26 -6 -26 -8 0 -26 -11 -40
-25 -21 -21 -24 -31 -19 -58 4 -18 12 -38 18 -46 50 -61 158 -1 143 79 -2 14
-5 28 -5 31 -1 3 -12 11 -24 16 -22 10 -23 16 -19 67 l4 56 -31 0 c-29 0 -31
-3 -31 -34z m91 -113 c13 -16 12 -17 -3 -4 -10 7 -18 15 -18 17 0 8 8 3 21
-13z"/>
<path d="M2180 2778 c-86 -59 -91 -167 -12 -242 64 -60 180 -38 218 42 19 41
20 111 2 150 -33 69 -142 95 -208 50z"/>
<path d="M2652 2780 c-34 -21 -71 -87 -72 -128 0 -31 44 -114 69 -129 11 -7
38 -15 59 -19 54 -8 101 16 135 69 48 74 28 175 -43 212 -41 21 -109 19 -148
-5z"/>
<path d="M2485 2550 c3 -5 0 -7 -8 -4 -17 6 -29 -9 -45 -58 -11 -32 -11 -41 4
-63 31 -48 134 -22 134 35 0 16 -27 60 -44 72 -7 5 -7 8 -1 8 15 0 -18 20 -33
20 -7 0 -10 -4 -7 -10z"/>
<path d="M1841 3156 c-15 -18 2 -56 23 -56 21 0 38 27 31 50 -7 23 -37 27 -54
6z"/>
<path d="M3110 3156 c-27 -33 18 -72 48 -42 13 13 14 20 6 34 -15 23 -38 26
-54 8z"/>
<path d="M1844 2225 c-9 -23 3 -45 26 -45 25 0 37 25 20 45 -16 19 -39 19 -46
0z"/>
<path d="M3105 2220 c-8 -25 1 -40 24 -40 24 0 45 25 37 45 -8 23 -53 19 -61
-5z"/>
<path d="M2110 1992 c0 -10 5 -23 12 -30 16 -16 48 -15 48 1 0 16 -32 47 -48
47 -7 0 -12 -8 -12 -18z"/>
<path d="M2825 1990 c-9 -15 4 -30 26 -30 12 0 19 7 19 20 0 21 -33 29 -45 10z"/>
<path d="M2480 1915 c-17 -21 -2 -50 26 -50 14 0 19 7 19 30 0 34 -24 45 -45
20z"/>
<path d="M2784 1406 c-3 -8 -19 -18 -35 -21 -16 -4 -31 -11 -34 -16 -4 -5 -24
-9 -46 -9 -32 0 -39 -4 -39 -19 0 -11 6 -21 12 -23 10 -4 10 -10 1 -31 -8 -17
-18 -25 -27 -21 -8 3 -19 -3 -25 -14 -12 -23 -6 -32 25 -32 27 0 41 -17 25
-33 -31 -31 1 -73 42 -58 23 9 26 8 29 -17 4 -37 40 -41 83 -8 18 14 44 26 57
26 38 0 52 14 39 38 -20 38 -14 52 24 52 30 0 35 3 35 24 0 17 -7 26 -24 30
-41 10 -46 56 -5 56 10 0 19 6 19 13 0 24 -22 35 -61 30 -37 -5 -39 -4 -37 18
3 20 -2 25 -25 27 -17 2 -29 -2 -33 -12z m34 -98 c5 -7 13 -24 16 -38 6 -23 6
-23 -5 -5 -7 11 -17 23 -23 27 -16 11 -64 10 -71 -2 -3 -5 -11 -10 -17 -10 -6
0 -3 9 7 20 20 23 77 27 93 8z"/>
<path d="M2056 4092 c-50 -14 -86 -27 -80 -29 5 -1 56 11 114 27 58 16 94 29
80 29 -14 0 -65 -12 -114 -27z"/>
<path d="M1875 4031 c-22 -11 -35 -19 -30 -19 14 -1 93 36 80 37 -5 0 -28 -8
-50 -18z"/>
</g>
</svg>
