<?xml version="1.0" encoding="UTF-8"?>
<!DOCTYPE svg PUBLIC "-//W3C//DTD SVG 1.1//EN" "http://www.w3.org/Graphics/SVG/1.1/DTD/svg11.dtd">
<svg xmlns="http://www.w3.org/2000/svg" version="1.1" width="500px" height="355px" style="shape-rendering:geometricPrecision; text-rendering:geometricPrecision; image-rendering:optimizeQuality; fill-rule:evenodd; clip-rule:evenodd" xmlns:xlink="http://www.w3.org/1999/xlink">
<g><path style="opacity:1" fill="#706d6a" d="M 357.5,50.5 C 355.656,51.2039 355.156,52.5372 356,54.5C 359.297,56.7954 362.297,59.462 365,62.5C 365.749,63.635 365.583,64.635 364.5,65.5C 353.132,53.323 340.132,43.323 325.5,35.5C 324.961,32.257 323.294,29.757 320.5,28C 316.71,27.7703 313.376,26.437 310.5,24C 302.733,22.8942 295.4,20.5609 288.5,17C 284.179,16.501 279.846,16.3343 275.5,16.5C 263.896,12.8846 251.896,11.5513 239.5,12.5C 239.082,11.7784 238.416,11.2784 237.5,11C 238.056,10.6174 238.389,10.1174 238.5,9.5C 278.796,6.54592 315.129,17.0459 347.5,41C 351.334,43.6682 354.667,46.8348 357.5,50.5 Z"/></g>
<g><path style="opacity:1" fill="#b4b0ae" d="M 239.5,12.5 C 251.896,11.5513 263.896,12.8846 275.5,16.5C 275.5,16.8333 275.5,17.1667 275.5,17.5C 267.469,17.8431 260.303,17.1764 254,15.5C 250.783,15.5913 247.616,15.9246 244.5,16.5C 241.14,16.6159 237.807,16.9492 234.5,17.5C 234.414,16.5041 234.748,15.6708 235.5,15C 234.263,14.7679 233.263,14.2679 232.5,13.5C 235.059,13.8016 237.393,13.4682 239.5,12.5 Z"/></g>
<g><path style="opacity:1" fill="#cbc7bf" d="M 232.5,13.5 C 233.263,14.2679 234.263,14.7679 235.5,15C 234.748,15.6708 234.414,16.5041 234.5,17.5C 196.515,20.1639 164.515,35.1639 138.5,62.5C 136.097,62.393 134.264,63.393 133,65.5C 127.31,73.0241 121.81,80.6908 116.5,88.5C 115.508,88.6716 114.842,88.3382 114.5,87.5C 115.03,85.0763 115.864,82.743 117,80.5C 119.385,78.1162 121.385,75.4495 123,72.5C 124.965,70.4497 127.132,68.783 129.5,67.5C 131.86,65.1348 133.86,62.4681 135.5,59.5C 140.474,56.1931 144.807,52.1931 148.5,47.5C 151.867,43.3199 156.2,40.4866 161.5,39C 175.06,29.3042 189.893,22.1375 206,17.5C 209.872,18.5489 213.372,17.7156 216.5,15C 221.78,13.9054 227.113,13.4054 232.5,13.5 Z"/></g>
<g><path style="opacity:1" fill="#595555" d="M 244.5,16.5 C 244.5,16.8333 244.5,17.1667 244.5,17.5C 241.929,20.8204 241.929,24.3204 244.5,28C 245.448,28.4828 246.448,28.6495 247.5,28.5C 248.152,29.7251 249.319,30.3917 251,30.5C 254.119,30.8757 255.952,29.5423 256.5,26.5C 256.253,25.2867 255.586,24.62 254.5,24.5C 255.686,22.2078 255.686,19.8744 254.5,17.5C 259.979,17.08 261.146,18.7467 258,22.5C 257.333,24.8333 257.333,27.1667 258,29.5C 259.726,28.4238 261.559,28.2571 263.5,29C 262.619,29.7083 261.953,30.5416 261.5,31.5C 239.717,29.4835 218.717,32.6502 198.5,41C 193.227,45.3033 187.227,47.97 180.5,49C 172.459,53.6814 164.793,58.8481 157.5,64.5C 156.211,62.752 154.711,62.4186 153,63.5C 151.333,61.8333 149.667,60.1667 148,58.5C 147,60.1667 146,61.8333 145,63.5C 142.959,62.5769 140.792,62.2436 138.5,62.5C 164.515,35.1639 196.515,20.1639 234.5,17.5C 237.807,16.9492 241.14,16.6159 244.5,16.5 Z"/></g>
<g><path style="opacity:1" fill="#0f0d11" d="M 244.5,17.5 C 247.833,17.5 251.167,17.5 254.5,17.5C 255.686,19.8744 255.686,22.2078 254.5,24.5C 253.145,27.5177 250.812,28.851 247.5,28.5C 246.448,28.6495 245.448,28.4828 244.5,28C 241.929,24.3204 241.929,20.8204 244.5,17.5 Z"/></g>
<g><path style="opacity:1" fill="#4b4749" d="M 275.5,17.5 C 292.924,21.3087 309.591,27.3087 325.5,35.5C 340.132,43.323 353.132,53.323 364.5,65.5C 365.583,64.635 365.749,63.635 365,62.5C 362.297,59.462 359.297,56.7954 356,54.5C 355.156,52.5372 355.656,51.2039 357.5,50.5C 363.463,54.7949 368.796,59.7949 373.5,65.5C 374.08,67.7488 375.413,69.4154 377.5,70.5C 379.463,71.9599 381.296,73.6266 383,75.5C 387.061,82.0548 390.894,88.7215 394.5,95.5C 392.757,97.3404 391.09,98.6737 389.5,99.5C 392.883,106.924 396.216,114.257 399.5,121.5C 404.725,137.07 407.392,153.07 407.5,169.5C 406.833,169.5 406.167,169.5 405.5,169.5C 407.903,162.067 405.236,159.234 397.5,161C 393.585,163.645 392.585,167.145 394.5,171.5C 394.062,172.506 393.396,172.506 392.5,171.5C 393.061,165.268 392.228,159.268 390,153.5C 389.83,162.343 389.33,171.01 388.5,179.5C 391.63,142.997 381.63,110.664 358.5,82.5C 357.675,81.6143 356.675,81.281 355.5,81.5C 355.649,80.448 355.483,79.448 355,78.5C 329.643,51.5713 298.477,35.9046 261.5,31.5C 261.953,30.5416 262.619,29.7083 263.5,29C 261.559,28.2571 259.726,28.4238 258,29.5C 257.333,27.1667 257.333,24.8333 258,22.5C 261.146,18.7467 259.979,17.08 254.5,17.5C 251.167,17.5 247.833,17.5 244.5,17.5C 244.5,17.1667 244.5,16.8333 244.5,16.5C 247.616,15.9246 250.783,15.5913 254,15.5C 260.303,17.1764 267.469,17.8431 275.5,17.5 Z"/></g>
<g><path style="opacity:1" fill="#938f8e" d="M 275.5,17.5 C 275.5,17.1667 275.5,16.8333 275.5,16.5C 279.846,16.3343 284.179,16.501 288.5,17C 295.4,20.5609 302.733,22.8942 310.5,24C 313.376,26.437 316.71,27.7703 320.5,28C 323.294,29.757 324.961,32.257 325.5,35.5C 309.591,27.3087 292.924,21.3087 275.5,17.5 Z"/></g>
<g><path style="opacity:1" fill="#dbd9de" d="M 254.5,24.5 C 255.586,24.62 256.253,25.2867 256.5,26.5C 255.952,29.5423 254.119,30.8757 251,30.5C 249.319,30.3917 248.152,29.7251 247.5,28.5C 250.812,28.851 253.145,27.5177 254.5,24.5 Z"/></g>
<g><path style="opacity:1" fill="#838078" d="M 238.5,9.5 C 238.389,10.1174 238.056,10.6174 237.5,11C 238.416,11.2784 239.082,11.7784 239.5,12.5C 237.393,13.4682 235.059,13.8016 232.5,13.5C 227.113,13.4054 221.78,13.9054 216.5,15C 213.372,17.7156 209.872,18.5489 206,17.5C 189.893,22.1375 175.06,29.3042 161.5,39C 156.2,40.4866 151.867,43.3199 148.5,47.5C 148.158,46.6618 147.492,46.3284 146.5,46.5C 149.714,42.12 153.714,38.62 158.5,36C 182.851,20.2718 209.518,11.4385 238.5,9.5 Z"/></g>
<g><path style="opacity:1" fill="#635f58" d="M 146.5,46.5 C 147.492,46.3284 148.158,46.6618 148.5,47.5C 144.807,52.1931 140.474,56.1931 135.5,59.5C 133.86,62.4681 131.86,65.1348 129.5,67.5C 128.448,67.6495 127.448,67.4828 126.5,67C 128.016,65.103 128.683,62.9363 128.5,60.5C 133.406,54.3858 139.406,49.7191 146.5,46.5 Z"/></g>
<g><path style="opacity:1" fill="#464144" d="M 333.5,70.5 C 334.167,70.8333 334.833,71.1667 335.5,71.5C 338.688,73.6902 341.855,76.0235 345,78.5C 345.862,80.087 346.529,81.7536 347,83.5C 353.74,89.5699 359.74,96.2366 365,103.5C 371.794,117.89 377.794,132.557 383,147.5C 388.453,184.623 380.62,218.623 359.5,249.5C 361.99,249.01 363.99,249.01 365.5,249.5C 366.539,251.901 367.873,254.235 369.5,256.5C 369.376,257.107 369.043,257.44 368.5,257.5C 352.339,256.338 336.005,256.172 319.5,257C 318.473,257.513 317.473,258.013 316.5,258.5C 316.5,257.5 316.5,256.5 316.5,255.5C 312.062,255.066 309.062,252.733 307.5,248.5C 307.414,247.504 307.748,246.671 308.5,246C 312.689,244.456 316.856,242.956 321,241.5C 322.167,241.667 323.333,241.833 324.5,242C 326.789,246.644 330.456,248.311 335.5,247C 333.787,245.622 332.453,243.955 331.5,242C 329.075,241.707 327.242,240.541 326,238.5C 325.275,239.059 324.442,239.392 323.5,239.5C 320.004,237.739 316.337,237.239 312.5,238C 311.354,238.645 310.354,239.478 309.5,240.5C 307.415,239.353 305.915,240.02 305,242.5C 304.804,240.714 303.971,239.381 302.5,238.5C 301.065,239.947 300.065,241.614 299.5,243.5C 299.396,241.297 298.73,239.297 297.5,237.5C 301.079,237.234 301.413,235.901 298.5,233.5C 298.833,232.833 299.167,232.167 299.5,231.5C 303.482,229.195 307.482,226.862 311.5,224.5C 311.137,223.817 310.804,223.15 310.5,222.5C 312.156,223.146 313.823,223.813 315.5,224.5C 316.584,224.315 317.584,223.982 318.5,223.5C 322.689,225.118 327.022,226.118 331.5,226.5C 332.884,221.403 335.551,217.07 339.5,213.5C 341.512,211.792 341.846,209.792 340.5,207.5C 342.797,196.222 349.797,190.889 361.5,191.5C 363.809,187.358 366.976,184.024 371,181.5C 371.667,178.167 371.667,174.833 371,171.5C 370.28,169.944 369.113,168.944 367.5,168.5C 367.628,166.345 367.128,164.345 366,162.5C 363.333,159.833 360.667,157.167 358,154.5C 357.768,155.737 357.268,156.737 356.5,157.5C 356.5,155.5 356.5,153.5 356.5,151.5C 356.423,150.25 355.756,149.417 354.5,149C 350.001,147.961 345.668,146.794 341.5,145.5C 341.335,142.482 341.502,139.482 342,136.5C 346.554,133.882 350.554,130.548 354,126.5C 354.667,124.833 354.667,123.167 354,121.5C 351.554,120.555 350.054,118.889 349.5,116.5C 348.306,112.637 345.973,109.637 342.5,107.5C 342.167,106.5 341.5,105.833 340.5,105.5C 340.291,104.078 339.791,102.745 339,101.5C 335.297,98.1325 331.964,94.4658 329,90.5C 323.148,94.2576 316.815,96.9243 310,98.5C 306.38,96.7035 303.213,94.3702 300.5,91.5C 302.55,91.9612 304.55,92.6279 306.5,93.5C 309.881,88.4422 309.047,84.4422 304,81.5C 302.927,76.8467 301.427,76.5133 299.5,80.5C 299.5,79.5 299.5,78.5 299.5,77.5C 299.414,76.5041 299.748,75.6708 300.5,75C 297.386,72.1098 293.72,70.2764 289.5,69.5C 287.577,70.0924 285.911,71.0924 284.5,72.5C 283.998,70.9153 282.998,70.4153 281.5,71C 278.758,72.8864 277.091,75.3864 276.5,78.5C 275.041,78.5674 273.708,78.2341 272.5,77.5C 269.733,77.1417 267.067,76.475 264.5,75.5C 265.919,74.5489 267.585,74.2155 269.5,74.5C 269.39,70.9998 268.557,67.6665 267,64.5C 265,63.8333 263.667,62.5 263,60.5C 262.506,62.1341 262.34,63.8008 262.5,65.5C 261.313,62.0542 260.646,58.3875 260.5,54.5C 254.167,54.5 247.833,54.5 241.5,54.5C 240.699,52.9582 240.366,51.2915 240.5,49.5C 237.5,49.5 234.5,49.5 231.5,49.5C 235.339,48.707 239.339,48.0403 243.5,47.5C 244.91,47.1322 245.91,46.2989 246.5,45C 257.17,44.8147 267.837,45.148 278.5,46C 283.556,47.0276 287.89,49.361 291.5,53C 297.421,55.129 303.421,56.9624 309.5,58.5C 309.33,59.8221 309.663,60.9887 310.5,62C 317.41,62.7429 323.41,65.4095 328.5,70C 330.134,70.4935 331.801,70.6602 333.5,70.5 Z"/></g>
<g><path style="opacity:1" fill="#534e4f" d="M 157.5,64.5 C 150.876,72.1271 144.043,79.4604 137,86.5C 125.095,103.644 116.429,122.31 111,142.5C 109.373,152.1 108.54,161.766 108.5,171.5C 107.441,173.555 105.775,174.889 103.5,175.5C 104.685,174.143 105.685,172.643 106.5,171C 106.164,169.97 105.497,169.47 104.5,169.5C 106.401,163.213 103.901,160.213 97,160.5C 95.2894,160.439 93.956,161.106 93,162.5C 92.5026,165.146 92.3359,167.813 92.5,170.5C 92.3337,177.175 92.5004,183.842 93,190.5C 95.6202,197.899 96.6202,205.566 96,213.5C 93.8784,209.802 92.545,205.802 92,201.5C 89.6311,186.061 89.1311,170.728 90.5,155.5C 90.2148,157.288 90.5481,158.955 91.5,160.5C 92.1924,159.975 92.6924,159.308 93,158.5C 93.848,149.045 95.348,139.711 97.5,130.5C 101.934,115.484 108.268,101.484 116.5,88.5C 121.81,80.6908 127.31,73.0241 133,65.5C 134.264,63.393 136.097,62.393 138.5,62.5C 140.792,62.2436 142.959,62.5769 145,63.5C 146,61.8333 147,60.1667 148,58.5C 149.667,60.1667 151.333,61.8333 153,63.5C 154.711,62.4186 156.211,62.752 157.5,64.5 Z"/></g>
<g><path style="opacity:1" fill="#79766e" d="M 128.5,60.5 C 128.683,62.9363 128.016,65.103 126.5,67C 127.448,67.4828 128.448,67.6495 129.5,67.5C 127.132,68.783 124.965,70.4497 123,72.5C 121.385,75.4495 119.385,78.1162 117,80.5C 115.864,82.743 115.03,85.0763 114.5,87.5C 111.833,91.1667 109.167,94.8333 106.5,98.5C 105.791,97.596 104.791,97.2627 103.5,97.5C 110.103,83.9485 118.437,71.6152 128.5,60.5 Z"/></g>
<g><path style="opacity:0.769" fill="#b2b0b1" d="M 373.5,65.5 C 375.587,66.5846 376.92,68.2512 377.5,70.5C 375.413,69.4154 374.08,67.7488 373.5,65.5 Z"/></g>
<g><path style="opacity:1" fill="#171219" d="M 261.5,31.5 C 298.477,35.9046 329.643,51.5713 355,78.5C 355.483,79.448 355.649,80.448 355.5,81.5C 356.675,81.281 357.675,81.6143 358.5,82.5C 381.63,110.664 391.63,142.997 388.5,179.5C 387.578,191.035 385.578,202.368 382.5,213.5C 378.05,225.068 373.05,236.402 367.5,247.5C 366.5,247.833 365.833,248.5 365.5,249.5C 363.99,249.01 361.99,249.01 359.5,249.5C 380.62,218.623 388.453,184.623 383,147.5C 377.794,132.557 371.794,117.89 365,103.5C 359.74,96.2366 353.74,89.5699 347,83.5C 346.529,81.7536 345.862,80.087 345,78.5C 341.855,76.0235 338.688,73.6902 335.5,71.5C 337.006,68.5308 336.673,65.6975 334.5,63C 324.833,57.3333 315.167,51.6667 305.5,46C 261.875,29.5291 219.541,32.3624 178.5,54.5C 173.838,58.1664 168.838,61.3331 163.5,64C 161.929,67.2466 159.929,70.2466 157.5,73C 157.57,73.7648 157.903,74.2648 158.5,74.5C 136.302,95.5365 121.802,121.203 115,151.5C 114.173,165.34 114.339,179.006 115.5,192.5C 116.748,202.157 119.248,211.491 123,220.5C 137.096,254.268 160.596,279.435 193.5,296C 207.108,302.485 221.441,305.652 236.5,305.5C 236.662,307.527 236.495,309.527 236,311.5C 235.617,312.056 235.117,312.389 234.5,312.5C 225.371,309.716 216.037,307.216 206.5,305C 189.938,299.055 174.605,291.055 160.5,281C 156.162,275.009 150.829,270.176 144.5,266.5C 140.215,259.552 135.549,252.885 130.5,246.5C 127.523,240.554 124.023,234.888 120,229.5C 111.714,211.028 107.881,191.694 108.5,171.5C 108.54,161.766 109.373,152.1 111,142.5C 116.429,122.31 125.095,103.644 137,86.5C 144.043,79.4604 150.876,72.1271 157.5,64.5C 164.793,58.8481 172.459,53.6814 180.5,49C 187.227,47.97 193.227,45.3033 198.5,41C 218.717,32.6502 239.717,29.4835 261.5,31.5 Z"/></g>
<g><path style="opacity:1" fill="#151217" d="M 264.5,75.5 C 262.598,72.6627 261.931,69.3293 262.5,65.5C 262.34,63.8008 262.506,62.1341 263,60.5C 263.667,62.5 265,63.8333 267,64.5C 268.557,67.6665 269.39,70.9998 269.5,74.5C 267.585,74.2155 265.919,74.5489 264.5,75.5 Z"/></g>
<g><path style="opacity:1" fill="#f6f5ec" d="M 241.5,54.5 C 247.833,54.5 254.167,54.5 260.5,54.5C 260.646,58.3875 261.313,62.0542 262.5,65.5C 261.931,69.3293 262.598,72.6627 264.5,75.5C 267.067,76.475 269.733,77.1417 272.5,77.5C 272.5,78.5 272.5,79.5 272.5,80.5C 271.167,80.5 269.833,80.5 268.5,80.5C 267.477,83.3925 267.477,86.2258 268.5,89C 267.756,90.0386 266.756,90.5386 265.5,90.5C 250.405,88.2714 235.738,89.7714 221.5,95C 208.563,101.462 197.563,110.296 188.5,121.5C 186.777,120.395 185.777,118.728 185.5,116.5C 188.484,116.213 189.817,114.546 189.5,111.5C 189.826,107.221 191.826,103.887 195.5,101.5C 194.626,99.2534 194.292,96.9201 194.5,94.5C 196.167,92.5 197.833,90.5 199.5,88.5C 201.484,88.516 202.484,87.516 202.5,85.5C 202.248,83.9271 201.582,82.5938 200.5,81.5C 197.492,74.5921 199.992,70.5921 208,69.5C 209.107,69.5852 210.107,69.9186 211,70.5C 213.231,73.2815 215.231,76.2815 217,79.5C 222.568,77.0337 228.401,75.7003 234.5,75.5C 235.526,68.8179 236.693,62.1512 238,55.5C 239.011,54.6634 240.178,54.33 241.5,54.5 Z"/></g>
<g><path style="opacity:1" fill="#2b262c" d="M 333.5,70.5 C 331.801,70.6602 330.134,70.4935 328.5,70C 323.41,65.4095 317.41,62.7429 310.5,62C 309.663,60.9887 309.33,59.8221 309.5,58.5C 303.421,56.9624 297.421,55.129 291.5,53C 287.89,49.361 283.556,47.0276 278.5,46C 267.837,45.148 257.17,44.8147 246.5,45C 245.91,46.2989 244.91,47.1322 243.5,47.5C 239.339,48.0403 235.339,48.707 231.5,49.5C 227.157,49.2838 223.157,50.2838 219.5,52.5C 218.167,52.1667 216.833,51.8333 215.5,51.5C 212.262,53.0249 208.929,54.3582 205.5,55.5C 201.279,57.1056 196.946,58.4389 192.5,59.5C 187.651,62.0392 182.985,64.7058 178.5,67.5C 178.719,68.675 178.386,69.675 177.5,70.5C 171.932,73.9148 166.265,77.0814 160.5,80C 152.25,87.914 144.416,96.0807 137,104.5C 134.327,109.519 132.66,114.852 132,120.5C 119.025,142.634 113.525,166.634 115.5,192.5C 114.339,179.006 114.173,165.34 115,151.5C 121.802,121.203 136.302,95.5365 158.5,74.5C 159.552,74.6495 160.552,74.4828 161.5,74C 173.318,64.5417 185.984,56.2083 199.5,49C 207.971,47.622 216.304,45.622 224.5,43C 257.256,37.8765 288.256,42.8765 317.5,58C 323.446,61.4623 328.78,65.6289 333.5,70.5 Z"/></g>
<g><path style="opacity:1" fill="#5d5959" d="M 231.5,49.5 C 234.5,49.5 237.5,49.5 240.5,49.5C 240.366,51.2915 240.699,52.9582 241.5,54.5C 240.178,54.33 239.011,54.6634 238,55.5C 236.693,62.1512 235.526,68.8179 234.5,75.5C 228.401,75.7003 222.568,77.0337 217,79.5C 215.231,76.2815 213.231,73.2815 211,70.5C 210.107,69.9186 209.107,69.5852 208,69.5C 199.992,70.5921 197.492,74.5921 200.5,81.5C 199.5,81.5 198.5,81.5 197.5,81.5C 196.99,84.3878 197.656,86.7211 199.5,88.5C 197.833,90.5 196.167,92.5 194.5,94.5C 192.761,96.881 190.428,98.5476 187.5,99.5C 182.226,97.5298 177.226,95.0298 172.5,92C 171.167,91.3333 169.833,91.3333 168.5,92C 164.997,96.6688 160.997,100.836 156.5,104.5C 154.583,102.738 153.25,100.571 152.5,98C 153.53,95.4398 154.697,92.9398 156,90.5C 160.215,85.9846 164.715,81.8179 169.5,78C 174.723,75.4427 179.39,72.1094 183.5,68C 191.058,64.0591 198.392,59.8925 205.5,55.5C 208.929,54.3582 212.262,53.0249 215.5,51.5C 216.833,51.8333 218.167,52.1667 219.5,52.5C 223.157,50.2838 227.157,49.2838 231.5,49.5 Z"/></g>
<g><path style="opacity:1" fill="#0b060f" d="M 335.5,71.5 C 334.833,71.1667 334.167,70.8333 333.5,70.5C 328.78,65.6289 323.446,61.4623 317.5,58C 288.256,42.8765 257.256,37.8765 224.5,43C 216.304,45.622 207.971,47.622 199.5,49C 185.984,56.2083 173.318,64.5417 161.5,74C 160.552,74.4828 159.552,74.6495 158.5,74.5C 157.903,74.2648 157.57,73.7648 157.5,73C 159.929,70.2466 161.929,67.2466 163.5,64C 168.838,61.3331 173.838,58.1664 178.5,54.5C 219.541,32.3624 261.875,29.5291 305.5,46C 315.167,51.6667 324.833,57.3333 334.5,63C 336.673,65.6975 337.006,68.5308 335.5,71.5 Z"/></g>
<g><path style="opacity:1" fill="#615f60" d="M 284.5,72.5 C 285.127,74.6565 284.46,76.6565 282.5,78.5C 280.364,79.7928 278.364,79.7928 276.5,78.5C 277.091,75.3864 278.758,72.8864 281.5,71C 282.998,70.4153 283.998,70.9153 284.5,72.5 Z"/></g>
<g><path style="opacity:1" fill="#eeebe1" d="M 299.5,77.5 C 295.034,80.6333 294.034,84.3 296.5,88.5C 297.795,89.4884 299.128,90.4884 300.5,91.5C 303.213,94.3702 306.38,96.7035 310,98.5C 316.815,96.9243 323.148,94.2576 329,90.5C 331.964,94.4658 335.297,98.1325 339,101.5C 339.791,102.745 340.291,104.078 340.5,105.5C 337.691,109.768 334.857,114.102 332,118.5C 330.89,120.037 329.39,120.703 327.5,120.5C 328.226,129.672 330.893,138.005 335.5,145.5C 336.833,145.5 338.167,145.5 339.5,145.5C 340.167,145.5 340.833,145.5 341.5,145.5C 345.668,146.794 350.001,147.961 354.5,149C 355.756,149.417 356.423,150.25 356.5,151.5C 355.833,151.5 355.5,151.833 355.5,152.5C 348.304,151.89 341.304,150.557 334.5,148.5C 330.796,149.876 328.463,152.542 327.5,156.5C 325.861,157.322 324.195,157.989 322.5,158.5C 322.861,152.935 321.527,147.935 318.5,143.5C 317.833,143.5 317.5,143.167 317.5,142.5C 317.522,136.06 316.189,129.894 313.5,124C 313.944,122.238 314.444,122.405 315,124.5C 315.976,122.113 317.809,120.946 320.5,121C 322.679,116.394 321.512,113.228 317,111.5C 316.517,110.552 316.351,109.552 316.5,108.5C 315.209,108.263 314.209,108.596 313.5,109.5C 312.325,109.281 311.325,109.614 310.5,110.5C 311.154,112.115 311.654,113.782 312,115.5C 313.292,116.791 314.458,116.791 315.5,115.5C 317.026,116.105 318.026,117.271 318.5,119C 315.846,119.941 313.179,120.774 310.5,121.5C 298.782,106.469 283.782,96.1355 265.5,90.5C 266.756,90.5386 267.756,90.0386 268.5,89C 267.477,86.2258 267.477,83.3925 268.5,80.5C 269.833,80.5 271.167,80.5 272.5,80.5C 272.5,79.5 272.5,78.5 272.5,77.5C 273.708,78.2341 275.041,78.5674 276.5,78.5C 278.364,79.7928 280.364,79.7928 282.5,78.5C 284.46,76.6565 285.127,74.6565 284.5,72.5C 285.911,71.0924 287.577,70.0924 289.5,69.5C 293.72,70.2764 297.386,72.1098 300.5,75C 299.748,75.6708 299.414,76.5041 299.5,77.5 Z"/></g>
<g><path style="opacity:1" fill="#706e6c" d="M 299.5,77.5 C 299.5,78.5 299.5,79.5 299.5,80.5C 297.957,82.9278 296.957,85.5944 296.5,88.5C 294.034,84.3 295.034,80.6333 299.5,77.5 Z"/></g>
<g><path style="opacity:1" fill="#161419" d="M 300.5,91.5 C 299.128,90.4884 297.795,89.4884 296.5,88.5C 296.957,85.5944 297.957,82.9278 299.5,80.5C 301.427,76.5133 302.927,76.8467 304,81.5C 309.047,84.4422 309.881,88.4422 306.5,93.5C 304.55,92.6279 302.55,91.9612 300.5,91.5 Z"/></g>
<g><path style="opacity:1" fill="#3d3c3b" d="M 247.5,78.5 C 251.527,78.2596 252.861,79.9263 251.5,83.5C 247.157,84.5191 245.823,82.8525 247.5,78.5 Z"/></g>
<g><path style="opacity:1" fill="#252128" d="M 200.5,81.5 C 201.582,82.5938 202.248,83.9271 202.5,85.5C 202.484,87.516 201.484,88.516 199.5,88.5C 197.656,86.7211 196.99,84.3878 197.5,81.5C 198.5,81.5 199.5,81.5 200.5,81.5 Z"/></g>
<g><path style="opacity:1" fill="#f2f0e6" d="M 194.5,94.5 C 194.292,96.9201 194.626,99.2534 195.5,101.5C 191.826,103.887 189.826,107.221 189.5,111.5C 188.068,109.353 186.235,109.02 184,110.5C 183.059,112.989 183.559,114.989 185.5,116.5C 185.777,118.728 186.777,120.395 188.5,121.5C 183.921,129.331 180.421,137.665 178,146.5C 177.08,156.594 177.58,166.594 179.5,176.5C 177.824,177.183 177.157,178.517 177.5,180.5C 175.533,180.261 173.699,180.594 172,181.5C 172.524,174.722 169.691,171.388 163.5,171.5C 162.691,169.929 162.357,168.262 162.5,166.5C 165.819,165.11 169.152,163.61 172.5,162C 173.77,157.739 172.27,156.572 168,158.5C 165.317,155.066 161.984,153.733 158,154.5C 156.591,152.116 154.924,150.783 153,150.5C 148.616,153.217 145.282,156.884 143,161.5C 142.501,157.514 142.334,153.514 142.5,149.5C 148.748,146.273 155.415,144.94 162.5,145.5C 163.573,140.485 164.906,135.485 166.5,130.5C 167.773,128.287 168.773,125.954 169.5,123.5C 166.669,118.098 162.503,113.098 157,108.5C 156.601,108.728 156.435,109.062 156.5,109.5C 156.167,109.5 155.833,109.5 155.5,109.5C 155.366,107.708 155.699,106.042 156.5,104.5C 160.997,100.836 164.997,96.6688 168.5,92C 169.833,91.3333 171.167,91.3333 172.5,92C 177.226,95.0298 182.226,97.5298 187.5,99.5C 190.428,98.5476 192.761,96.881 194.5,94.5 Z"/></g>
<g><path style="opacity:1" fill="#797471" d="M 265.5,90.5 C 283.782,96.1355 298.782,106.469 310.5,121.5C 310.771,123.38 310.104,124.713 308.5,125.5C 303.537,119.641 298.537,113.641 293.5,107.5C 283.168,102.502 272.501,98.3349 261.5,95C 233.378,91.3206 210.545,100.487 193,122.5C 184.508,135.97 180.508,150.637 181,166.5C 181.647,172.257 183.147,177.757 185.5,183C 185.167,183.333 184.833,183.667 184.5,184C 186.15,187.485 188.15,190.651 190.5,193.5C 190.5,194.167 190.5,194.833 190.5,195.5C 188.983,195.489 187.816,194.823 187,193.5C 184.379,187.774 181.879,182.107 179.5,176.5C 177.58,166.594 177.08,156.594 178,146.5C 180.421,137.665 183.921,129.331 188.5,121.5C 197.563,110.296 208.563,101.462 221.5,95C 235.738,89.7714 250.405,88.2714 265.5,90.5 Z"/></g>
<g><path style="opacity:1" fill="#130e14" d="M 308.5,125.5 C 309.547,129.261 311.381,132.594 314,135.5C 314.49,136.793 314.657,138.127 314.5,139.5C 313.828,140.267 312.995,140.934 312,141.5C 310.476,137.041 308.309,133.041 305.5,129.5C 305.291,128.078 304.791,126.745 304,125.5C 283.703,102.788 258.536,95.2878 228.5,103C 222.904,104.288 218.571,107.288 215.5,112C 212.499,111.906 210.499,113.239 209.5,116C 205.934,116.7 203.1,118.533 201,121.5C 195.457,130.589 190.457,139.922 186,149.5C 184.216,163.063 185.716,176.063 190.5,188.5C 190.5,190.167 190.5,191.833 190.5,193.5C 188.15,190.651 186.15,187.485 184.5,184C 184.833,183.667 185.167,183.333 185.5,183C 183.147,177.757 181.647,172.257 181,166.5C 180.508,150.637 184.508,135.97 193,122.5C 210.545,100.487 233.378,91.3206 261.5,95C 272.501,98.3349 283.168,102.502 293.5,107.5C 298.537,113.641 303.537,119.641 308.5,125.5 Z"/></g>
<g><path style="opacity:1" fill="#3e393c" d="M 205.5,55.5 C 198.392,59.8925 191.058,64.0591 183.5,68C 179.39,72.1094 174.723,75.4427 169.5,78C 164.715,81.8179 160.215,85.9846 156,90.5C 154.697,92.9398 153.53,95.4398 152.5,98C 153.25,100.571 154.583,102.738 156.5,104.5C 155.699,106.042 155.366,107.708 155.5,109.5C 154.488,116.952 156.822,123.452 162.5,129C 163.901,129.41 165.234,129.91 166.5,130.5C 164.906,135.485 163.573,140.485 162.5,145.5C 155.415,144.94 148.748,146.273 142.5,149.5C 141.509,155.979 141.176,162.646 141.5,169.5C 142.11,170.391 142.443,171.391 142.5,172.5C 141.285,177.298 142.452,181.631 146,185.5C 146.725,184.941 147.558,184.608 148.5,184.5C 152.085,185.976 155.751,187.143 159.5,188C 162.467,191.115 165.134,194.282 167.5,197.5C 163.87,201.631 160.037,205.631 156,209.5C 155.26,210.749 155.427,211.749 156.5,212.5C 157.11,213.391 157.443,214.391 157.5,215.5C 157.5,216.167 157.5,216.833 157.5,217.5C 156.35,216.15 155.683,216.316 155.5,218C 155.714,222.84 157.714,226.674 161.5,229.5C 162.919,228.995 163.585,227.995 163.5,226.5C 165.235,228.235 167.235,229.568 169.5,230.5C 175.616,227.692 181.782,225.025 188,222.5C 192.616,225.889 197.449,228.889 202.5,231.5C 200.022,235.122 198.689,239.122 198.5,243.5C 198.5,243.833 198.5,244.167 198.5,244.5C 197.387,245.946 197.22,247.613 198,249.5C 200.374,253.75 202.874,257.916 205.5,262C 208.03,263.422 210.697,263.755 213.5,263C 212.033,261.902 211.199,260.402 211,258.5C 209.082,257.458 207.249,256.292 205.5,255C 207.684,253.102 208.017,250.936 206.5,248.5C 207.833,248.5 209.167,248.5 210.5,248.5C 207.9,250.589 208.066,252.589 211,254.5C 211.5,254.333 212,254.167 212.5,254C 211.328,252.132 211.495,250.298 213,248.5C 215.054,245.626 217.221,242.959 219.5,240.5C 224.264,243.474 229.264,244.141 234.5,242.5C 235.477,245.287 235.81,248.287 235.5,251.5C 233.145,254.067 232.311,257.067 233,260.5C 237.077,266.298 241.41,271.965 246,277.5C 247.731,275.383 249.898,273.883 252.5,273C 257.305,272.783 261.972,271.949 266.5,270.5C 269.162,268.732 272.162,268.065 275.5,268.5C 275.365,259.993 279.365,257.327 287.5,260.5C 290.167,261.833 292.833,263.167 295.5,264.5C 296.5,264.167 297.5,263.833 298.5,263.5C 296.435,262.143 294.435,260.81 292.5,259.5C 291.492,257.661 289.992,256.328 288,255.5C 287.503,253.19 287.337,250.857 287.5,248.5C 288.117,248.611 288.617,248.944 289,249.5C 290.725,248.536 292.559,247.869 294.5,247.5C 294.47,248.497 294.97,249.164 296,249.5C 298.35,248.496 300.684,247.496 303,246.5C 304.204,250.716 304.87,255.049 305,259.5C 305.667,258.833 306.333,258.167 307,257.5C 307.498,254.518 307.665,251.518 307.5,248.5C 309.062,252.733 312.062,255.066 316.5,255.5C 316.5,256.5 316.5,257.5 316.5,258.5C 314.038,260.637 312.371,263.304 311.5,266.5C 319.333,266.833 327.167,267.167 335,267.5C 344.224,267.61 353.391,267.11 362.5,266C 365.523,263.823 367.523,260.989 368.5,257.5C 369.043,257.44 369.376,257.107 369.5,256.5C 367.873,254.235 366.539,251.901 365.5,249.5C 365.833,248.5 366.5,247.833 367.5,247.5C 369.795,248.792 371.628,248.126 373,245.5C 378.014,235.812 382.18,225.812 385.5,215.5C 389.679,201.26 392.013,186.593 392.5,171.5C 393.396,172.506 394.062,172.506 394.5,171.5C 395.708,172.234 397.041,172.567 398.5,172.5C 395.875,173.441 395.875,174.607 398.5,176C 403.67,177.658 406.67,175.824 407.5,170.5C 407.392,202.591 399.559,232.925 384,261.5C 380.011,267.317 375.511,272.651 370.5,277.5C 370.083,276.876 369.416,276.543 368.5,276.5C 366.423,277.937 364.09,278.604 361.5,278.5C 356.275,278.814 351.275,278.147 346.5,276.5C 319.449,276.035 292.449,276.535 265.5,278C 264.128,278.402 262.795,278.902 261.5,279.5C 258.956,282.949 255.789,285.615 252,287.5C 248.429,291.975 245.929,296.975 244.5,302.5C 242.95,306.702 242.616,311.035 243.5,315.5C 243.5,316.167 243.5,316.833 243.5,317.5C 242.305,317.866 241.639,318.699 241.5,320C 242.55,323.455 242.717,326.955 242,330.5C 198.763,328.56 162.096,311.56 132,279.5C 128.719,274.219 124.719,269.553 120,265.5C 119.517,264.552 119.351,263.552 119.5,262.5C 115.522,256.026 111.356,249.693 107,243.5C 105.25,240.754 104.25,237.754 104,234.5C 99.8874,229.133 96.7207,229.8 94.5,236.5C 84.0044,208.399 81.0044,179.399 85.5,149.5C 87.1667,149.5 88.8333,149.5 90.5,149.5C 90.5,151.5 90.5,153.5 90.5,155.5C 89.1311,170.728 89.6311,186.061 92,201.5C 92.545,205.802 93.8784,209.802 96,213.5C 96.6202,205.566 95.6202,197.899 93,190.5C 92.5004,183.842 92.3337,177.175 92.5,170.5C 93.8333,171.167 95.1667,171.833 96.5,172.5C 95.2935,173.88 95.6269,175.047 97.5,176C 99.5976,176.678 101.598,176.511 103.5,175.5C 105.775,174.889 107.441,173.555 108.5,171.5C 107.881,191.694 111.714,211.028 120,229.5C 124.023,234.888 127.523,240.554 130.5,246.5C 129.35,245.15 128.683,245.316 128.5,247C 131.985,252.49 135.485,257.99 139,263.5C 140.113,264.305 141.279,264.972 142.5,265.5C 144.459,269.981 147.459,273.815 151.5,277C 173.669,298.014 200.002,310.514 230.5,314.5C 232.355,314.66 233.688,313.993 234.5,312.5C 235.117,312.389 235.617,312.056 236,311.5C 236.495,309.527 236.662,307.527 236.5,305.5C 221.441,305.652 207.108,302.485 193.5,296C 160.596,279.435 137.096,254.268 123,220.5C 119.248,211.491 116.748,202.157 115.5,192.5C 113.525,166.634 119.025,142.634 132,120.5C 132.66,114.852 134.327,109.519 137,104.5C 144.416,96.0807 152.25,87.914 160.5,80C 166.265,77.0814 171.932,73.9148 177.5,70.5C 178.386,69.675 178.719,68.675 178.5,67.5C 182.985,64.7058 187.651,62.0392 192.5,59.5C 196.946,58.4389 201.279,57.1056 205.5,55.5 Z"/></g>
<g><path style="opacity:1" fill="#272329" d="M 305.5,129.5 C 302.237,129.326 300.57,127.659 300.5,124.5C 295.263,121.872 290.263,118.705 285.5,115C 283.39,114.446 281.39,113.612 279.5,112.5C 278.558,112.608 277.725,112.941 277,113.5C 271.349,106.46 264.182,104.46 255.5,107.5C 252.5,107.5 249.5,107.5 246.5,107.5C 247.85,106.35 247.684,105.683 246,105.5C 236.699,105.77 228.199,108.604 220.5,114C 218.5,114.333 216.5,114.667 214.5,115C 210,120.167 205.167,125 200,129.5C 197.131,139.973 193.798,150.306 190,160.5C 189.349,169.852 189.516,179.186 190.5,188.5C 185.716,176.063 184.216,163.063 186,149.5C 190.457,139.922 195.457,130.589 201,121.5C 203.1,118.533 205.934,116.7 209.5,116C 210.499,113.239 212.499,111.906 215.5,112C 218.571,107.288 222.904,104.288 228.5,103C 258.536,95.2878 283.703,102.788 304,125.5C 304.791,126.745 305.291,128.078 305.5,129.5 Z"/></g>
<g><path style="opacity:1" fill="#2d282e" d="M 394.5,95.5 C 398.611,101.386 401.944,107.72 404.5,114.5C 403.711,114.783 403.044,115.283 402.5,116C 403.466,119.435 403.466,122.935 402.5,126.5C 401.687,124.739 400.687,123.072 399.5,121.5C 396.216,114.257 392.883,106.924 389.5,99.5C 391.09,98.6737 392.757,97.3404 394.5,95.5 Z"/></g>
<g><path style="opacity:1" fill="#f3f2e9" d="M 246.5,107.5 C 249.5,107.5 252.5,107.5 255.5,107.5C 263.882,110.254 271.882,114.088 279.5,119C 283.503,122.155 286.503,125.988 288.5,130.5C 288.316,133.173 287.149,133.84 285,132.5C 284.376,134.464 284.876,136.131 286.5,137.5C 287.478,137.023 288.311,136.357 289,135.5C 289.927,138.647 288.927,140.981 286,142.5C 284.209,140.971 282.542,139.304 281,137.5C 279.658,140.794 277.158,142.128 273.5,141.5C 273.649,142.552 273.483,143.552 273,144.5C 271.378,145.099 269.878,145.766 268.5,146.5C 266.784,146.629 265.117,146.962 263.5,147.5C 262.957,147.44 262.624,147.107 262.5,146.5C 264.012,145.751 265.012,144.584 265.5,143C 264.922,141.189 264.422,139.355 264,137.5C 263.105,140.767 261.272,141.434 258.5,139.5C 258.5,140.5 258.5,141.5 258.5,142.5C 251.617,142.934 244.95,142.267 238.5,140.5C 239.099,143.948 238.099,146.614 235.5,148.5C 218.058,142.303 209.725,148.303 210.5,166.5C 207.034,166.617 204.2,167.95 202,170.5C 201.617,169.944 201.117,169.611 200.5,169.5C 197.793,156.765 199.626,144.765 206,133.5C 210.923,126.822 216.423,120.655 222.5,115C 230.416,112.195 238.416,109.695 246.5,107.5 Z"/></g>
<g><path style="opacity:1" fill="#130e15" d="M 342.5,107.5 C 345.973,109.637 348.306,112.637 349.5,116.5C 349.663,118.857 349.497,121.19 349,123.5C 345.067,126.428 341.4,129.761 338,133.5C 337.331,137.649 337.831,141.649 339.5,145.5C 338.167,145.5 336.833,145.5 335.5,145.5C 335.017,137.888 333.017,130.722 329.5,124C 335.091,119.566 339.424,114.066 342.5,107.5 Z"/></g>
<g><path style="opacity:1" fill="#262424" d="M 189.5,111.5 C 189.817,114.546 188.484,116.213 185.5,116.5C 183.559,114.989 183.059,112.989 184,110.5C 186.235,109.02 188.068,109.353 189.5,111.5 Z"/></g>
<g><path style="opacity:1" fill="#2e2b2d" d="M 313.5,109.5 C 314.738,111.214 315.405,113.214 315.5,115.5C 314.458,116.791 313.292,116.791 312,115.5C 311.654,113.782 311.154,112.115 310.5,110.5C 311.325,109.614 312.325,109.281 313.5,109.5 Z"/></g>
<g><path style="opacity:1" fill="#9b9993" d="M 169.5,123.5 C 163.784,120.117 159.451,115.451 156.5,109.5C 156.435,109.062 156.601,108.728 157,108.5C 162.503,113.098 166.669,118.098 169.5,123.5 Z"/></g>
<g><path style="opacity:1" fill="#181317" d="M 155.5,109.5 C 155.833,109.5 156.167,109.5 156.5,109.5C 159.451,115.451 163.784,120.117 169.5,123.5C 168.773,125.954 167.773,128.287 166.5,130.5C 165.234,129.91 163.901,129.41 162.5,129C 156.822,123.452 154.488,116.952 155.5,109.5 Z"/></g>
<g><path style="opacity:1" fill="#161617" d="M 252.5,121.5 C 250.477,122.521 248.477,122.188 246.5,120.5C 246.5,117.5 246.5,114.5 246.5,111.5C 248.5,111.5 250.5,111.5 252.5,111.5C 252.5,114.833 252.5,118.167 252.5,121.5 Z"/></g>
<g><path style="opacity:1" fill="#4c4a4c" d="M 305.5,129.5 C 308.309,133.041 310.476,137.041 312,141.5C 312.995,140.934 313.828,140.267 314.5,139.5C 315.728,140.306 316.728,141.306 317.5,142.5C 317.5,143.167 317.833,143.5 318.5,143.5C 321.297,161.671 317.964,178.337 308.5,193.5C 308.297,191.956 307.63,190.622 306.5,189.5C 309.16,179.511 308.994,169.511 306,159.5C 305.623,158.058 304.79,157.058 303.5,156.5C 303.493,149.482 300.993,143.482 296,138.5C 295.536,139.094 295.369,139.761 295.5,140.5C 293.975,136.635 291.642,133.302 288.5,130.5C 286.503,125.988 283.503,122.155 279.5,119C 271.882,114.088 263.882,110.254 255.5,107.5C 264.182,104.46 271.349,106.46 277,113.5C 277.725,112.941 278.558,112.608 279.5,112.5C 281.39,113.612 283.39,114.446 285.5,115C 290.263,118.705 295.263,121.872 300.5,124.5C 300.57,127.659 302.237,129.326 305.5,129.5 Z"/></g>
<g><path style="opacity:1" fill="#a7a3a0" d="M 114.5,87.5 C 114.842,88.3382 115.508,88.6716 116.5,88.5C 108.268,101.484 101.934,115.484 97.5,130.5C 96.8826,130.611 96.3826,130.944 96,131.5C 95.5045,129.527 95.3379,127.527 95.5,125.5C 98.5949,116.203 102.262,107.203 106.5,98.5C 109.167,94.8333 111.833,91.1667 114.5,87.5 Z"/></g>
<g><path style="opacity:1" fill="#494448" d="M 404.5,114.5 C 407.473,120.085 409.473,126.085 410.5,132.5C 410.41,135.152 411.076,137.485 412.5,139.5C 414.468,145.644 415.468,151.978 415.5,158.5C 414.883,158.389 414.383,158.056 414,157.5C 412.107,145.598 409.44,133.932 406,122.5C 404.26,123.716 403.26,125.382 403,127.5C 402.601,127.272 402.435,126.938 402.5,126.5C 403.466,122.935 403.466,119.435 402.5,116C 403.044,115.283 403.711,114.783 404.5,114.5 Z"/></g>
<g><path style="opacity:1" fill="#2d282d" d="M 349.5,116.5 C 350.054,118.889 351.554,120.555 354,121.5C 354.667,123.167 354.667,124.833 354,126.5C 350.554,130.548 346.554,133.882 342,136.5C 341.502,139.482 341.335,142.482 341.5,145.5C 340.833,145.5 340.167,145.5 339.5,145.5C 337.831,141.649 337.331,137.649 338,133.5C 341.4,129.761 345.067,126.428 349,123.5C 349.497,121.19 349.663,118.857 349.5,116.5 Z"/></g>
<g><path style="opacity:1" fill="#5d5956" d="M 103.5,97.5 C 104.791,97.2627 105.791,97.596 106.5,98.5C 102.262,107.203 98.5949,116.203 95.5,125.5C 93.3439,133.276 91.6772,141.276 90.5,149.5C 88.8333,149.5 87.1667,149.5 85.5,149.5C 87.8341,130.796 93.8341,113.463 103.5,97.5 Z"/></g>
<g><path style="opacity:1" fill="#b9b5ae" d="M 313.5,109.5 C 314.209,108.596 315.209,108.263 316.5,108.5C 316.351,109.552 316.517,110.552 317,111.5C 321.512,113.228 322.679,116.394 320.5,121C 317.809,120.946 315.976,122.113 315,124.5C 314.444,122.405 313.944,122.238 313.5,124C 316.189,129.894 317.522,136.06 317.5,142.5C 316.728,141.306 315.728,140.306 314.5,139.5C 314.657,138.127 314.49,136.793 314,135.5C 311.381,132.594 309.547,129.261 308.5,125.5C 310.104,124.713 310.771,123.38 310.5,121.5C 313.179,120.774 315.846,119.941 318.5,119C 318.026,117.271 317.026,116.105 315.5,115.5C 315.405,113.214 314.738,111.214 313.5,109.5 Z"/></g>
<g><path style="opacity:1" fill="#6e6d6d" d="M 246.5,120.5 C 248.477,122.188 250.477,122.521 252.5,121.5C 253.525,123.515 255.192,124.848 257.5,125.5C 258.754,127.643 258.754,129.643 257.5,131.5C 257.649,130.448 257.483,129.448 257,128.5C 256.667,128.833 256.333,129.167 256,129.5C 251.015,123.992 246.348,124.325 242,130.5C 241.617,129.944 241.117,129.611 240.5,129.5C 240.363,124.806 242.697,122.639 247.5,123C 246.748,122.329 246.414,121.496 246.5,120.5 Z"/></g>
<g><path style="opacity:1" fill="#1d181f" d="M 399.5,121.5 C 400.687,123.072 401.687,124.739 402.5,126.5C 402.435,126.938 402.601,127.272 403,127.5C 403.26,125.382 404.26,123.716 406,122.5C 409.44,133.932 412.107,145.598 414,157.5C 414.383,158.056 414.883,158.389 415.5,158.5C 419.034,203.034 408.2,243.701 383,280.5C 377.066,287.708 370.232,293.875 362.5,299C 366.969,316.729 361.636,330.729 346.5,341C 341.361,344.046 335.861,345.88 330,346.5C 321.198,345.476 312.365,344.31 303.5,343C 279.449,343.039 255.449,342.039 231.5,340C 208.113,337.034 186.113,330.201 165.5,319.5C 165.027,318.094 164.027,317.427 162.5,317.5C 162.027,316.094 161.027,315.427 159.5,315.5C 141.922,304.59 127.255,290.59 115.5,273.5C 114.51,268.763 115.843,265.096 119.5,262.5C 119.351,263.552 119.517,264.552 120,265.5C 124.719,269.553 128.719,274.219 132,279.5C 162.096,311.56 198.763,328.56 242,330.5C 242.717,326.955 242.55,323.455 241.5,320C 241.639,318.699 242.305,317.866 243.5,317.5C 244.93,321.354 246.597,325.02 248.5,328.5C 248.611,329.117 248.944,329.617 249.5,330C 260.161,330.5 270.828,330.667 281.5,330.5C 290.525,330.832 299.525,330.498 308.5,329.5C 304.587,326.125 303.587,322.125 305.5,317.5C 305.5,318.167 305.833,318.5 306.5,318.5C 307.603,322.497 309.269,326.164 311.5,329.5C 315.852,333.608 321.186,335.608 327.5,335.5C 342.893,334.773 351.56,326.773 353.5,311.5C 352.893,303.956 349.893,297.623 344.5,292.5C 349.202,291.131 352.202,288.131 353.5,283.5C 360.942,286.21 366.609,284.21 370.5,277.5C 375.511,272.651 380.011,267.317 384,261.5C 399.559,232.925 407.392,202.591 407.5,170.5C 407.5,170.167 407.5,169.833 407.5,169.5C 407.392,153.07 404.725,137.07 399.5,121.5 Z"/></g>
<g><path style="opacity:1" fill="#111015" d="M 257.5,131.5 C 257.443,132.609 257.11,133.609 256.5,134.5C 252.593,131.51 249.26,132.01 246.5,136C 245.552,136.483 244.552,136.649 243.5,136.5C 241.707,134.574 240.707,132.241 240.5,129.5C 241.117,129.611 241.617,129.944 242,130.5C 246.348,124.325 251.015,123.992 256,129.5C 256.333,129.167 256.667,128.833 257,128.5C 257.483,129.448 257.649,130.448 257.5,131.5 Z"/></g>
<g><path style="opacity:1" fill="#64605e" d="M 340.5,105.5 C 341.5,105.833 342.167,106.5 342.5,107.5C 339.424,114.066 335.091,119.566 329.5,124C 333.017,130.722 335.017,137.888 335.5,145.5C 330.893,138.005 328.226,129.672 327.5,120.5C 329.39,120.703 330.89,120.037 332,118.5C 334.857,114.102 337.691,109.768 340.5,105.5 Z"/></g>
<g><path style="opacity:1" fill="#908c8b" d="M 95.5,125.5 C 95.3379,127.527 95.5045,129.527 96,131.5C 96.3826,130.944 96.8826,130.611 97.5,130.5C 95.348,139.711 93.848,149.045 93,158.5C 92.6924,159.308 92.1924,159.975 91.5,160.5C 90.5481,158.955 90.2148,157.288 90.5,155.5C 90.5,153.5 90.5,151.5 90.5,149.5C 91.6772,141.276 93.3439,133.276 95.5,125.5 Z"/></g>
<g><path style="opacity:1" fill="#6f6b6c" d="M 141.5,129.5 C 146.891,129.351 147.558,130.851 143.5,134C 140.014,135.043 137.014,134.376 134.5,132C 136.23,130.148 137.396,130.314 138,132.5C 139.518,131.837 140.685,130.837 141.5,129.5 Z"/></g>
<g><path style="opacity:1" fill="#32313a" d="M 256.5,134.5 C 254.07,138.708 250.403,140.208 245.5,139C 244.619,138.292 243.953,137.458 243.5,136.5C 244.552,136.649 245.552,136.483 246.5,136C 249.26,132.01 252.593,131.51 256.5,134.5 Z"/></g>
<g><path style="opacity:1" fill="#4b484a" d="M 246.5,107.5 C 238.416,109.695 230.416,112.195 222.5,115C 216.423,120.655 210.923,126.822 206,133.5C 199.626,144.765 197.793,156.765 200.5,169.5C 200.5,170.167 200.5,170.833 200.5,171.5C 199.504,171.586 198.671,171.252 198,170.5C 197.333,172.833 197.333,175.167 198,177.5C 200.147,182.46 202.814,187.127 206,191.5C 206.49,192.793 206.657,194.127 206.5,195.5C 210.537,203.707 216.537,206.373 224.5,203.5C 224.232,201.901 224.566,200.568 225.5,199.5C 225.5,200.833 225.5,202.167 225.5,203.5C 225.5,204.5 225.5,205.5 225.5,206.5C 225.259,209.794 226.092,212.794 228,215.5C 230.324,216.807 231.657,218.807 232,221.5C 232.671,222.252 233.504,222.586 234.5,222.5C 235.11,223.391 235.443,224.391 235.5,225.5C 217.421,221.402 202.755,212.068 191.5,197.5C 191.672,196.508 191.338,195.842 190.5,195.5C 190.5,194.833 190.5,194.167 190.5,193.5C 190.5,191.833 190.5,190.167 190.5,188.5C 189.516,179.186 189.349,169.852 190,160.5C 193.798,150.306 197.131,139.973 200,129.5C 205.167,125 210,120.167 214.5,115C 216.5,114.667 218.5,114.333 220.5,114C 228.199,108.604 236.699,105.77 246,105.5C 247.684,105.683 247.85,106.35 246.5,107.5 Z"/></g>
<g><path style="opacity:1" fill="#edebe1" d="M 288.5,130.5 C 291.642,133.302 293.975,136.635 295.5,140.5C 295.704,143.518 296.037,146.518 296.5,149.5C 296.5,152.5 296.5,155.5 296.5,158.5C 293.921,159.228 291.254,159.728 288.5,160C 289.499,171.737 283.999,178.904 272,181.5C 270.248,179.998 268.248,178.998 266,178.5C 264.193,180.32 262.027,181.487 259.5,182C 259.044,185.794 257.044,188.461 253.5,190C 256.692,190.697 258.692,192.53 259.5,195.5C 258.178,195.33 257.011,195.663 256,196.5C 255.502,199.817 255.335,203.15 255.5,206.5C 251.167,206.5 246.833,206.5 242.5,206.5C 242.81,203.287 242.477,200.287 241.5,197.5C 241.586,196.504 241.252,195.671 240.5,195C 238.833,194.333 237.167,194.333 235.5,195C 234.549,198.057 234.216,201.223 234.5,204.5C 231.391,204.736 228.391,204.403 225.5,203.5C 225.5,202.167 225.5,200.833 225.5,199.5C 225.5,196.5 225.5,193.5 225.5,190.5C 226.043,190.44 226.376,190.107 226.5,189.5C 215.811,188.326 207.477,183.326 201.5,174.5C 200.89,173.609 200.557,172.609 200.5,171.5C 200.5,170.833 200.5,170.167 200.5,169.5C 201.117,169.611 201.617,169.944 202,170.5C 204.2,167.95 207.034,166.617 210.5,166.5C 211.833,167.5 213.167,168.5 214.5,169.5C 214.738,171.404 215.738,172.738 217.5,173.5C 217.842,174.338 218.508,174.672 219.5,174.5C 225.635,176.162 231.469,175.162 237,171.5C 237.335,169.497 238.168,167.83 239.5,166.5C 241.766,159.714 240.433,153.714 235.5,148.5C 238.099,146.614 239.099,143.948 238.5,140.5C 244.95,142.267 251.617,142.934 258.5,142.5C 258.5,141.5 258.5,140.5 258.5,139.5C 261.272,141.434 263.105,140.767 264,137.5C 264.422,139.355 264.922,141.189 265.5,143C 265.012,144.584 264.012,145.751 262.5,146.5C 262.624,147.107 262.957,147.44 263.5,147.5C 259.917,151.103 257.583,155.436 256.5,160.5C 256.936,164.296 258.269,167.63 260.5,170.5C 262.983,173.741 266.316,175.408 270.5,175.5C 277.271,176.366 281.937,173.699 284.5,167.5C 284.629,165.784 284.962,164.117 285.5,162.5C 285.5,162.167 285.5,161.833 285.5,161.5C 287.326,159.545 287.826,157.212 287,154.5C 285.542,152.04 283.709,149.873 281.5,148C 277.187,147.265 272.853,146.765 268.5,146.5C 269.878,145.766 271.378,145.099 273,144.5C 273.483,143.552 273.649,142.552 273.5,141.5C 277.158,142.128 279.658,140.794 281,137.5C 282.542,139.304 284.209,140.971 286,142.5C 288.927,140.981 289.927,138.647 289,135.5C 288.311,136.357 287.478,137.023 286.5,137.5C 284.876,136.131 284.376,134.464 285,132.5C 287.149,133.84 288.316,133.173 288.5,130.5 Z"/></g>
<g><path style="opacity:0.671" fill="#989597" d="M 410.5,132.5 C 411.924,134.515 412.59,136.848 412.5,139.5C 411.076,137.485 410.41,135.152 410.5,132.5 Z"/></g>
<g><path style="opacity:1" fill="#696664" d="M 235.5,148.5 C 240.433,153.714 241.766,159.714 239.5,166.5C 239.5,165.833 239.5,165.167 239.5,164.5C 237.951,152.1 230.951,147.6 218.5,151C 213.516,156.299 212.182,162.466 214.5,169.5C 213.167,168.5 211.833,167.5 210.5,166.5C 209.725,148.303 218.058,142.303 235.5,148.5 Z"/></g>
<g><path style="opacity:1" fill="#686563" d="M 268.5,146.5 C 272.853,146.765 277.187,147.265 281.5,148C 283.709,149.873 285.542,152.04 287,154.5C 287.826,157.212 287.326,159.545 285.5,161.5C 283.636,152.225 277.97,148.391 268.5,150C 261.002,154.753 258.335,161.586 260.5,170.5C 258.269,167.63 256.936,164.296 256.5,160.5C 257.583,155.436 259.917,151.103 263.5,147.5C 265.117,146.962 266.784,146.629 268.5,146.5 Z"/></g>
<g><path style="opacity:1" fill="#d8d3c7" d="M 355.5,152.5 C 355.687,158.212 355.354,163.879 354.5,169.5C 347.759,169.684 341.092,170.518 334.5,172C 331.698,179.841 329.031,187.841 326.5,196C 326.836,197.03 327.503,197.53 328.5,197.5C 330.772,198.441 332.772,199.774 334.5,201.5C 336.061,203.973 338.061,205.973 340.5,207.5C 341.846,209.792 341.512,211.792 339.5,213.5C 335.062,214.575 333.062,212.908 333.5,208.5C 331.473,208.662 329.473,208.495 327.5,208C 327.833,207.667 328.167,207.333 328.5,207C 326.269,205.723 324.602,203.889 323.5,201.5C 322.167,202.5 320.833,203.5 319.5,204.5C 318.045,201.643 316.045,200.977 313.5,202.5C 311.973,202.427 310.973,203.094 310.5,204.5C 307.751,207.643 305.917,210.976 305,214.5C 303.324,213.939 301.991,212.939 301,211.5C 299.89,213.037 298.39,213.703 296.5,213.5C 301.439,208.388 306.272,203.054 311,197.5C 314.87,190.425 318.204,183.092 321,175.5C 321.904,169.865 322.404,164.198 322.5,158.5C 324.195,157.989 325.861,157.322 327.5,156.5C 328.463,152.542 330.796,149.876 334.5,148.5C 341.304,150.557 348.304,151.89 355.5,152.5 Z"/></g>
<g><path style="opacity:1" fill="#130f16" d="M 285.5,161.5 C 285.5,161.833 285.5,162.167 285.5,162.5C 283.145,161.906 280.978,160.906 279,159.5C 272.357,162.563 266.19,166.23 260.5,170.5C 258.335,161.586 261.002,154.753 268.5,150C 277.97,148.391 283.636,152.225 285.5,161.5 Z"/></g>
<g><path style="opacity:1" fill="#120d15" d="M 367.5,168.5 C 365.701,173.733 364.201,179.067 363,184.5C 356.46,186.455 349.96,188.622 343.5,191C 341.962,192.932 340.795,195.099 340,197.5C 338.549,199.464 336.716,200.797 334.5,201.5C 332.772,199.774 330.772,198.441 328.5,197.5C 332.439,190.682 334.773,183.348 335.5,175.5C 342.229,174.924 348.895,173.924 355.5,172.5C 356.494,167.544 356.827,162.544 356.5,157.5C 357.268,156.737 357.768,155.737 358,154.5C 360.667,157.167 363.333,159.833 366,162.5C 367.128,164.345 367.628,166.345 367.5,168.5 Z"/></g>
<g><path style="opacity:1" fill="#969194" d="M 392.5,171.5 C 392.013,186.593 389.679,201.26 385.5,215.5C 385.368,212.993 384.368,212.326 382.5,213.5C 385.578,202.368 387.578,191.035 388.5,179.5C 389.33,171.01 389.83,162.343 390,153.5C 392.228,159.268 393.061,165.268 392.5,171.5 Z"/></g>
<g><path style="opacity:1" fill="#181419" d="M 239.5,164.5 C 234.197,163.653 228.864,163.82 223.5,165C 221.591,168.017 219.591,170.85 217.5,173.5C 215.738,172.738 214.738,171.404 214.5,169.5C 212.182,162.466 213.516,156.299 218.5,151C 230.951,147.6 237.951,152.1 239.5,164.5 Z"/></g>
<g><path style="opacity:1" fill="#3b373d" d="M 303.5,156.5 C 304.79,157.058 305.623,158.058 306,159.5C 308.994,169.511 309.16,179.511 306.5,189.5C 307.63,190.622 308.297,191.956 308.5,193.5C 307.92,195.749 306.587,197.415 304.5,198.5C 303.128,194.417 303.461,190.417 305.5,186.5C 304.861,178.038 304.194,169.704 303.5,161.5C 303.5,159.833 303.5,158.167 303.5,156.5 Z"/></g>
<g><path style="opacity:1" fill="#dfddd0" d="M 296.5,158.5 C 296.266,166.704 294.099,174.371 290,181.5C 285.497,187.059 279.663,189.392 272.5,188.5C 272.407,193.575 271.741,198.575 270.5,203.5C 268.618,204.093 266.785,204.76 265,205.5C 264.667,202.833 264.333,200.167 264,197.5C 262.89,195.963 261.39,195.297 259.5,195.5C 258.692,192.53 256.692,190.697 253.5,190C 257.044,188.461 259.044,185.794 259.5,182C 262.027,181.487 264.193,180.32 266,178.5C 268.248,178.998 270.248,179.998 272,181.5C 283.999,178.904 289.499,171.737 288.5,160C 291.254,159.728 293.921,159.228 296.5,158.5 Z"/></g>
<g><path style="opacity:1" fill="#141115" d="M 104.5,169.5 C 102.497,171.982 99.8306,172.982 96.5,172.5C 95.1667,171.833 93.8333,171.167 92.5,170.5C 92.3359,167.813 92.5026,165.146 93,162.5C 93.956,161.106 95.2894,160.439 97,160.5C 103.901,160.213 106.401,163.213 104.5,169.5 Z"/></g>
<g><path style="opacity:1" fill="#120d12" d="M 405.5,169.5 C 403.824,171.834 401.491,172.834 398.5,172.5C 397.041,172.567 395.708,172.234 394.5,171.5C 392.585,167.145 393.585,163.645 397.5,161C 405.236,159.234 407.903,162.067 405.5,169.5 Z"/></g>
<g><path style="opacity:1" fill="#3d3a3f" d="M 239.5,164.5 C 239.5,165.167 239.5,165.833 239.5,166.5C 235.727,166.263 232.06,166.763 228.5,168C 225.603,170.41 222.603,172.577 219.5,174.5C 218.508,174.672 217.842,174.338 217.5,173.5C 219.591,170.85 221.591,168.017 223.5,165C 228.864,163.82 234.197,163.653 239.5,164.5 Z"/></g>
<g><path style="opacity:1" fill="#100c12" d="M 303.5,156.5 C 303.5,158.167 303.5,159.833 303.5,161.5C 304.877,177.222 299.543,190.055 287.5,200C 284.854,200.497 282.187,200.664 279.5,200.5C 279.5,202.5 279.5,204.5 279.5,206.5C 280.281,222.259 275.115,224.592 264,213.5C 261.836,216.447 261.002,219.781 261.5,223.5C 258.45,224.077 256.45,222.91 255.5,220C 252.431,218.154 249.098,217.154 245.5,217C 244.636,215.303 243.303,214.137 241.5,213.5C 240.338,215.824 239.171,218.158 238,220.5C 237.184,221.823 236.017,222.489 234.5,222.5C 233.504,222.586 232.671,222.252 232,221.5C 231.657,218.807 230.324,216.807 228,215.5C 226.092,212.794 225.259,209.794 225.5,206.5C 228.779,207.492 232.112,207.659 235.5,207C 236.293,203.589 236.793,200.089 237,196.5C 238.356,197.38 239.856,197.714 241.5,197.5C 241.5,201.5 241.5,205.5 241.5,209.5C 246.511,209.666 251.511,209.499 256.5,209C 257.46,205.27 257.793,201.437 257.5,197.5C 259.167,197.5 260.833,197.5 262.5,197.5C 262.5,200.833 262.5,204.167 262.5,207.5C 265.85,207.665 269.183,207.498 272.5,207C 273,206.5 273.5,206 274,205.5C 274.499,200.845 274.666,196.179 274.5,191.5C 289.03,191.479 297.196,184.146 299,169.5C 300.193,162.433 299.36,155.767 296.5,149.5C 296.037,146.518 295.704,143.518 295.5,140.5C 295.369,139.761 295.536,139.094 296,138.5C 300.993,143.482 303.493,149.482 303.5,156.5 Z"/></g>
<g><path style="opacity:1" fill="#343237" d="M 285.5,162.5 C 284.962,164.117 284.629,165.784 284.5,167.5C 277.337,166.075 272.67,168.742 270.5,175.5C 266.316,175.408 262.983,173.741 260.5,170.5C 266.19,166.23 272.357,162.563 279,159.5C 280.978,160.906 283.145,161.906 285.5,162.5 Z"/></g>
<g><path style="opacity:1" fill="#57565a" d="M 239.5,166.5 C 238.168,167.83 237.335,169.497 237,171.5C 231.469,175.162 225.635,176.162 219.5,174.5C 222.603,172.577 225.603,170.41 228.5,168C 232.06,166.763 235.727,166.263 239.5,166.5 Z"/></g>
<g><path style="opacity:1" fill="#555559" d="M 284.5,167.5 C 281.937,173.699 277.271,176.366 270.5,175.5C 272.67,168.742 277.337,166.075 284.5,167.5 Z"/></g>
<g><path style="opacity:1" fill="#dadadc" d="M 104.5,169.5 C 105.497,169.47 106.164,169.97 106.5,171C 105.685,172.643 104.685,174.143 103.5,175.5C 101.598,176.511 99.5976,176.678 97.5,176C 95.6269,175.047 95.2935,173.88 96.5,172.5C 99.8306,172.982 102.497,171.982 104.5,169.5 Z"/></g>
<g><path style="opacity:1" fill="#837f78" d="M 255.5,176.5 C 247.376,171.247 243.042,173.581 242.5,183.5C 239.623,174.533 242.956,170.367 252.5,171C 254.607,172.264 255.607,174.097 255.5,176.5 Z"/></g>
<g><path style="opacity:1" fill="#221f25" d="M 303.5,161.5 C 304.194,169.704 304.861,178.038 305.5,186.5C 303.461,190.417 303.128,194.417 304.5,198.5C 304.167,199.167 303.833,199.833 303.5,200.5C 301.862,199.841 300.195,199.174 298.5,198.5C 293.593,202.617 287.926,204.45 281.5,204C 280.934,204.995 280.267,205.828 279.5,206.5C 279.5,204.5 279.5,202.5 279.5,200.5C 282.187,200.664 284.854,200.497 287.5,200C 299.543,190.055 304.877,177.222 303.5,161.5 Z"/></g>
<g><path style="opacity:1" fill="#746f6f" d="M 141.5,169.5 C 148.257,170.084 154.924,171.251 161.5,173C 162.756,173.417 163.423,174.25 163.5,175.5C 156.241,175.981 149.241,174.981 142.5,172.5C 142.443,171.391 142.11,170.391 141.5,169.5 Z"/></g>
<g><path style="opacity:1" fill="#e3dfd4" d="M 142.5,149.5 C 142.334,153.514 142.501,157.514 143,161.5C 145.282,156.884 148.616,153.217 153,150.5C 154.924,150.783 156.591,152.116 158,154.5C 161.984,153.733 165.317,155.066 168,158.5C 172.27,156.572 173.77,157.739 172.5,162C 169.152,163.61 165.819,165.11 162.5,166.5C 162.357,168.262 162.691,169.929 163.5,171.5C 169.691,171.388 172.524,174.722 172,181.5C 173.699,180.594 175.533,180.261 177.5,180.5C 177.157,178.517 177.824,177.183 179.5,176.5C 181.879,182.107 184.379,187.774 187,193.5C 187.816,194.823 188.983,195.489 190.5,195.5C 191.338,195.842 191.672,196.508 191.5,197.5C 189.876,195.863 188.876,196.197 188.5,198.5C 188.688,201.725 190.355,203.559 193.5,204C 196.697,208.362 200.363,212.195 204.5,215.5C 203.504,215.414 202.671,215.748 202,216.5C 199.817,214.924 197.651,213.258 195.5,211.5C 194.148,212.518 193.148,213.851 192.5,215.5C 192.331,214.603 191.998,213.603 191.5,212.5C 190.201,213.09 189.368,214.09 189,215.5C 187.851,212.864 186.017,210.864 183.5,209.5C 183.624,208.893 183.957,208.56 184.5,208.5C 190.113,207.791 190.78,205.791 186.5,202.5C 187.252,199.541 186.418,196.874 184,194.5C 183.268,196.923 181.768,198.09 179.5,198C 176.673,194.173 173.007,191.506 168.5,190C 167.391,188.124 166.391,186.291 165.5,184.5C 164.99,181.461 164.323,178.461 163.5,175.5C 163.423,174.25 162.756,173.417 161.5,173C 154.924,171.251 148.257,170.084 141.5,169.5C 141.176,162.646 141.509,155.979 142.5,149.5 Z"/></g>
<g><path style="opacity:1" fill="#2c272c" d="M 367.5,168.5 C 369.113,168.944 370.28,169.944 371,171.5C 371.667,174.833 371.667,178.167 371,181.5C 366.976,184.024 363.809,187.358 361.5,191.5C 349.797,190.889 342.797,196.222 340.5,207.5C 338.061,205.973 336.061,203.973 334.5,201.5C 336.716,200.797 338.549,199.464 340,197.5C 340.795,195.099 341.962,192.932 343.5,191C 349.96,188.622 356.46,186.455 363,184.5C 364.201,179.067 365.701,173.733 367.5,168.5 Z"/></g>
<g><path style="opacity:1" fill="#cac9cc" d="M 405.5,169.5 C 406.167,169.5 406.833,169.5 407.5,169.5C 407.5,169.833 407.5,170.167 407.5,170.5C 406.67,175.824 403.67,177.658 398.5,176C 395.875,174.607 395.875,173.441 398.5,172.5C 401.491,172.834 403.824,171.834 405.5,169.5 Z"/></g>
<g><path style="opacity:1" fill="#121013" d="M 255.5,176.5 C 256.11,177.391 256.443,178.391 256.5,179.5C 254.845,180.93 252.845,181.764 250.5,182C 249.733,183.47 249.067,184.97 248.5,186.5C 245.642,186.972 243.642,185.972 242.5,183.5C 243.042,173.581 247.376,171.247 255.5,176.5 Z"/></g>
<g><path style="opacity:1" fill="#161318" d="M 142.5,172.5 C 149.241,174.981 156.241,175.981 163.5,175.5C 164.323,178.461 164.99,181.461 165.5,184.5C 165.391,189.281 166.724,193.614 169.5,197.5C 168.833,197.5 168.167,197.5 167.5,197.5C 165.134,194.282 162.467,191.115 159.5,188C 155.751,187.143 152.085,185.976 148.5,184.5C 147.558,184.608 146.725,184.941 146,185.5C 142.452,181.631 141.285,177.298 142.5,172.5 Z"/></g>
<g><path style="opacity:1" fill="#888583" d="M 201.5,174.5 C 207.477,183.326 215.811,188.326 226.5,189.5C 226.376,190.107 226.043,190.44 225.5,190.5C 212.496,192.848 204.496,187.515 201.5,174.5 Z"/></g>
<g><path style="opacity:1" fill="#696360" d="M 356.5,151.5 C 356.5,153.5 356.5,155.5 356.5,157.5C 356.827,162.544 356.494,167.544 355.5,172.5C 348.895,173.924 342.229,174.924 335.5,175.5C 334.773,183.348 332.439,190.682 328.5,197.5C 327.503,197.53 326.836,197.03 326.5,196C 329.031,187.841 331.698,179.841 334.5,172C 341.092,170.518 347.759,169.684 354.5,169.5C 355.354,163.879 355.687,158.212 355.5,152.5C 355.5,151.833 355.833,151.5 356.5,151.5 Z"/></g>
<g><path style="opacity:1" fill="#151216" d="M 200.5,171.5 C 200.557,172.609 200.89,173.609 201.5,174.5C 204.496,187.515 212.496,192.848 225.5,190.5C 225.5,193.5 225.5,196.5 225.5,199.5C 224.566,200.568 224.232,201.901 224.5,203.5C 221.813,203.664 219.146,203.497 216.5,203C 214.748,198.912 211.915,195.746 208,193.5C 207.722,194.416 207.222,195.082 206.5,195.5C 206.657,194.127 206.49,192.793 206,191.5C 202.814,187.127 200.147,182.46 198,177.5C 197.333,175.167 197.333,172.833 198,170.5C 198.671,171.252 199.504,171.586 200.5,171.5 Z"/></g>
<g><path style="opacity:1" fill="#41444c" d="M 256.5,179.5 C 256.349,184.649 253.682,186.982 248.5,186.5C 249.067,184.97 249.733,183.47 250.5,182C 252.845,181.764 254.845,180.93 256.5,179.5 Z"/></g>
<g><path style="opacity:1" fill="#656260" d="M 296.5,149.5 C 299.36,155.767 300.193,162.433 299,169.5C 297.196,184.146 289.03,191.479 274.5,191.5C 274.666,196.179 274.499,200.845 274,205.5C 273.5,206 273,206.5 272.5,207C 269.183,207.498 265.85,207.665 262.5,207.5C 262.5,204.167 262.5,200.833 262.5,197.5C 260.833,197.5 259.167,197.5 257.5,197.5C 257.793,201.437 257.46,205.27 256.5,209C 251.511,209.499 246.511,209.666 241.5,209.5C 241.5,205.5 241.5,201.5 241.5,197.5C 242.477,200.287 242.81,203.287 242.5,206.5C 246.833,206.5 251.167,206.5 255.5,206.5C 255.335,203.15 255.502,199.817 256,196.5C 257.011,195.663 258.178,195.33 259.5,195.5C 261.39,195.297 262.89,195.963 264,197.5C 264.333,200.167 264.667,202.833 265,205.5C 266.785,204.76 268.618,204.093 270.5,203.5C 271.741,198.575 272.407,193.575 272.5,188.5C 279.663,189.392 285.497,187.059 290,181.5C 294.099,174.371 296.266,166.704 296.5,158.5C 296.5,155.5 296.5,152.5 296.5,149.5 Z"/></g>
<g><path style="opacity:1" fill="#2d2a2f" d="M 224.5,203.5 C 216.537,206.373 210.537,203.707 206.5,195.5C 207.222,195.082 207.722,194.416 208,193.5C 211.915,195.746 214.748,198.912 216.5,203C 219.146,203.497 221.813,203.664 224.5,203.5 Z"/></g>
<g><path style="opacity:1" fill="#767a7b" d="M 241.5,197.5 C 239.856,197.714 238.356,197.38 237,196.5C 236.793,200.089 236.293,203.589 235.5,207C 232.112,207.659 228.779,207.492 225.5,206.5C 225.5,205.5 225.5,204.5 225.5,203.5C 228.391,204.403 231.391,204.736 234.5,204.5C 234.216,201.223 234.549,198.057 235.5,195C 237.167,194.333 238.833,194.333 240.5,195C 241.252,195.671 241.586,196.504 241.5,197.5 Z"/></g>
<g><path style="opacity:1" fill="#150e14" d="M 140.5,204.5 C 139.564,205.974 138.23,206.974 136.5,207.5C 132.69,207.621 129.523,206.288 127,203.5C 126.542,200.904 127.375,198.737 129.5,197C 132.833,196.333 136.167,196.333 139.5,197C 141.715,199.242 142.048,201.742 140.5,204.5 Z"/></g>
<g><path style="opacity:1" fill="#f4f2ee" d="M 167.5,197.5 C 168.167,197.5 168.833,197.5 169.5,197.5C 172.907,197.125 173.407,198.125 171,200.5C 167.009,204.491 163.176,208.324 159.5,212C 158.552,212.483 157.552,212.649 156.5,212.5C 155.427,211.749 155.26,210.749 156,209.5C 160.037,205.631 163.87,201.631 167.5,197.5 Z"/></g>
<g><path style="opacity:1" fill="#ebeae8" d="M 318.5,143.5 C 321.527,147.935 322.861,152.935 322.5,158.5C 322.404,164.198 321.904,169.865 321,175.5C 318.204,183.092 314.87,190.425 311,197.5C 306.272,203.054 301.439,208.388 296.5,213.5C 290.83,216.005 285.83,219.505 281.5,224C 269.703,229.027 257.369,230.86 244.5,229.5C 239.47,229.02 234.47,228.353 229.5,227.5C 220.617,224.894 212.284,220.894 204.5,215.5C 200.363,212.195 196.697,208.362 193.5,204C 190.355,203.559 188.688,201.725 188.5,198.5C 188.876,196.197 189.876,195.863 191.5,197.5C 202.755,212.068 217.421,221.402 235.5,225.5C 247.555,227.126 259.555,226.626 271.5,224C 275.304,222.312 278.97,220.479 282.5,218.5C 289.048,215.614 294.382,211.281 298.5,205.5C 300.5,204.167 302.167,202.5 303.5,200.5C 303.833,199.833 304.167,199.167 304.5,198.5C 306.587,197.415 307.92,195.749 308.5,193.5C 317.964,178.337 321.297,161.671 318.5,143.5 Z"/></g>
<g><path style="opacity:1" fill="#c3bcb1" d="M 313.5,202.5 C 316.045,200.977 318.045,201.643 319.5,204.5C 320.833,203.5 322.167,202.5 323.5,201.5C 324.602,203.889 326.269,205.723 328.5,207C 328.167,207.333 327.833,207.667 327.5,208C 329.473,208.495 331.473,208.662 333.5,208.5C 333.062,212.908 335.062,214.575 339.5,213.5C 335.551,217.07 332.884,221.403 331.5,226.5C 327.022,226.118 322.689,225.118 318.5,223.5C 316.5,221.833 314.5,220.167 312.5,218.5C 313.476,217.185 314.476,215.852 315.5,214.5C 314.652,212.591 314.318,210.591 314.5,208.5C 313.5,208.5 312.5,208.5 311.5,208.5C 312.568,207.566 313.901,207.232 315.5,207.5C 315.923,205.219 315.256,203.552 313.5,202.5 Z"/></g>
<g><path style="opacity:1" fill="#231d1e" d="M 313.5,202.5 C 315.256,203.552 315.923,205.219 315.5,207.5C 313.901,207.232 312.568,207.566 311.5,208.5C 310.566,207.432 310.232,206.099 310.5,204.5C 310.973,203.094 311.973,202.427 313.5,202.5 Z"/></g>
<g><path style="opacity:1" fill="#2f2e29" d="M 186.5,202.5 C 190.78,205.791 190.113,207.791 184.5,208.5C 184.643,206.738 184.309,205.071 183.5,203.5C 184.325,202.614 185.325,202.281 186.5,202.5 Z"/></g>
<g><path style="opacity:1" fill="#322f35" d="M 303.5,200.5 C 302.167,202.5 300.5,204.167 298.5,205.5C 293.821,205.334 289.155,205.501 284.5,206C 283.426,206.739 282.759,207.739 282.5,209C 283.774,212.177 283.774,215.344 282.5,218.5C 278.97,220.479 275.304,222.312 271.5,224C 259.555,226.626 247.555,227.126 235.5,225.5C 235.443,224.391 235.11,223.391 234.5,222.5C 236.017,222.489 237.184,221.823 238,220.5C 239.171,218.158 240.338,215.824 241.5,213.5C 243.303,214.137 244.636,215.303 245.5,217C 249.098,217.154 252.431,218.154 255.5,220C 256.45,222.91 258.45,224.077 261.5,223.5C 261.002,219.781 261.836,216.447 264,213.5C 275.115,224.592 280.281,222.259 279.5,206.5C 280.267,205.828 280.934,204.995 281.5,204C 287.926,204.45 293.593,202.617 298.5,198.5C 300.195,199.174 301.862,199.841 303.5,200.5 Z"/></g>
<g><path style="opacity:1" fill="#b5afae" d="M 140.5,204.5 C 142.176,205.183 142.843,206.517 142.5,208.5C 138.715,210.159 134.715,210.659 130.5,210C 132.502,208.981 134.502,208.148 136.5,207.5C 138.23,206.974 139.564,205.974 140.5,204.5 Z"/></g>
<g><path style="opacity:1" fill="#4e4c51" d="M 298.5,205.5 C 294.382,211.281 289.048,215.614 282.5,218.5C 283.774,215.344 283.774,212.177 282.5,209C 282.759,207.739 283.426,206.739 284.5,206C 289.155,205.501 293.821,205.334 298.5,205.5 Z"/></g>
<g><path style="opacity:1" fill="#d3d0c5" d="M 165.5,184.5 C 166.391,186.291 167.391,188.124 168.5,190C 173.007,191.506 176.673,194.173 179.5,198C 181.768,198.09 183.268,196.923 184,194.5C 186.418,196.874 187.252,199.541 186.5,202.5C 185.325,202.281 184.325,202.614 183.5,203.5C 184.309,205.071 184.643,206.738 184.5,208.5C 183.957,208.56 183.624,208.893 183.5,209.5C 186.017,210.864 187.851,212.864 189,215.5C 189.368,214.09 190.201,213.09 191.5,212.5C 191.998,213.603 192.331,214.603 192.5,215.5C 193.148,213.851 194.148,212.518 195.5,211.5C 197.651,213.258 199.817,214.924 202,216.5C 202.671,215.748 203.504,215.414 204.5,215.5C 212.284,220.894 220.617,224.894 229.5,227.5C 229.892,230.722 229.392,233.722 228,236.5C 227.506,234.866 227.34,233.199 227.5,231.5C 224.537,231.953 222.204,233.453 220.5,236C 219.207,236.49 217.873,236.657 216.5,236.5C 213.588,238.802 211.255,241.636 209.5,245C 205.804,244.997 202.137,244.497 198.5,243.5C 198.689,239.122 200.022,235.122 202.5,231.5C 204.465,231.052 204.798,230.052 203.5,228.5C 197.83,225.305 192.33,221.972 187,218.5C 180.176,220.661 174.009,223.995 168.5,228.5C 165.907,223.242 162.241,218.909 157.5,215.5C 157.443,214.391 157.11,213.391 156.5,212.5C 157.552,212.649 158.552,212.483 159.5,212C 163.176,208.324 167.009,204.491 171,200.5C 173.407,198.125 172.907,197.125 169.5,197.5C 166.724,193.614 165.391,189.281 165.5,184.5 Z"/></g>
<g><path style="opacity:1" fill="#151014" d="M 157.5,217.5 C 160.737,219.63 162.737,222.63 163.5,226.5C 163.585,227.995 162.919,228.995 161.5,229.5C 157.714,226.674 155.714,222.84 155.5,218C 155.683,216.316 156.35,216.15 157.5,217.5 Z"/></g>
<g><path style="opacity:1" fill="#29252a" d="M 342.5,212.5 C 347.182,216.02 351.016,220.353 354,225.5C 355.54,231.066 354.207,235.732 350,239.5C 349.667,234.5 349.333,229.5 349,224.5C 348.457,222.369 347.624,220.369 346.5,218.5C 344.255,220.623 341.588,221.623 338.5,221.5C 339.79,218.524 341.123,215.524 342.5,212.5 Z"/></g>
<g><path style="opacity:1" fill="#66625d" d="M 312.5,218.5 C 314.5,220.167 316.5,221.833 318.5,223.5C 317.584,223.982 316.584,224.315 315.5,224.5C 313.823,223.813 312.156,223.146 310.5,222.5C 308.692,222.491 307.025,222.991 305.5,224C 303.016,226.744 300.016,228.744 296.5,230C 295.663,231.011 295.33,232.178 295.5,233.5C 294.031,230.898 294.698,228.731 297.5,227C 301.447,224.72 305.113,222.053 308.5,219C 309.793,218.51 311.127,218.343 312.5,218.5 Z"/></g>
<g><path style="opacity:1" fill="#171317" d="M 310.5,222.5 C 310.804,223.15 311.137,223.817 311.5,224.5C 307.482,226.862 303.482,229.195 299.5,231.5C 299.167,232.167 298.833,232.833 298.5,233.5C 301.413,235.901 301.079,237.234 297.5,237.5C 296.833,236.167 296.167,234.833 295.5,233.5C 295.33,232.178 295.663,231.011 296.5,230C 300.016,228.744 303.016,226.744 305.5,224C 307.025,222.991 308.692,222.491 310.5,222.5 Z"/></g>
<g><path style="opacity:1" fill="#5f5b58" d="M 157.5,215.5 C 162.241,218.909 165.907,223.242 168.5,228.5C 174.009,223.995 180.176,220.661 187,218.5C 192.33,221.972 197.83,225.305 203.5,228.5C 204.798,230.052 204.465,231.052 202.5,231.5C 197.449,228.889 192.616,225.889 188,222.5C 181.782,225.025 175.616,227.692 169.5,230.5C 167.235,229.568 165.235,228.235 163.5,226.5C 162.737,222.63 160.737,219.63 157.5,217.5C 157.5,216.833 157.5,216.167 157.5,215.5 Z"/></g>
<g><path style="opacity:1" fill="#cfcbc0" d="M 310.5,204.5 C 310.232,206.099 310.566,207.432 311.5,208.5C 312.5,208.5 313.5,208.5 314.5,208.5C 314.318,210.591 314.652,212.591 315.5,214.5C 314.476,215.852 313.476,217.185 312.5,218.5C 311.127,218.343 309.793,218.51 308.5,219C 305.113,222.053 301.447,224.72 297.5,227C 294.698,228.731 294.031,230.898 295.5,233.5C 296.167,234.833 296.833,236.167 297.5,237.5C 298.73,239.297 299.396,241.297 299.5,243.5C 298.833,243.5 298.167,243.5 297.5,243.5C 294.636,244.734 291.803,246.068 289,247.5C 287.545,244.088 285.712,240.921 283.5,238C 278.037,237.246 272.704,237.746 267.5,239.5C 266.167,239.5 264.833,239.5 263.5,239.5C 264.578,236.57 265.078,233.57 265,230.5C 260.343,233.042 258.009,237.042 258,242.5C 256.812,241.437 256.312,240.103 256.5,238.5C 255.5,238.5 254.5,238.5 253.5,238.5C 253.923,236.219 253.256,234.552 251.5,233.5C 250.5,233.5 249.5,233.5 248.5,233.5C 248.414,232.504 248.748,231.671 249.5,231C 247.618,230.802 245.952,230.302 244.5,229.5C 257.369,230.86 269.703,229.027 281.5,224C 285.83,219.505 290.83,216.005 296.5,213.5C 298.39,213.703 299.89,213.037 301,211.5C 301.991,212.939 303.324,213.939 305,214.5C 305.917,210.976 307.751,207.643 310.5,204.5 Z"/></g>
<g><path style="opacity:1" fill="#c4c1c6" d="M 385.5,215.5 C 382.18,225.812 378.014,235.812 373,245.5C 371.628,248.126 369.795,248.792 367.5,247.5C 373.05,236.402 378.05,225.068 382.5,213.5C 384.368,212.326 385.368,212.993 385.5,215.5 Z"/></g>
<g><path style="opacity:1" fill="#3f3b34" d="M 210.5,225.5 C 214.205,225.871 216.205,227.871 216.5,231.5C 212.347,231.798 210.347,229.798 210.5,225.5 Z"/></g>
<g><path style="opacity:1" fill="#3d3631" d="M 282.5,226.5 C 283.833,226.5 285.167,226.5 286.5,226.5C 286.5,227.833 286.5,229.167 286.5,230.5C 282.56,231.234 281.227,229.901 282.5,226.5 Z"/></g>
<g><path style="opacity:1" fill="#342e33" d="M 119.5,262.5 C 115.843,265.096 114.51,268.763 115.5,273.5C 106.431,262.409 99.4306,250.075 94.5,236.5C 96.7207,229.8 99.8874,229.133 104,234.5C 104.25,237.754 105.25,240.754 107,243.5C 111.356,249.693 115.522,256.026 119.5,262.5 Z"/></g>
<g><path style="opacity:1" fill="#2a242c" d="M 307.5,248.5 C 307.665,251.518 307.498,254.518 307,257.5C 306.333,258.167 305.667,258.833 305,259.5C 304.87,255.049 304.204,250.716 303,246.5C 300.684,247.496 298.35,248.496 296,249.5C 294.97,249.164 294.47,248.497 294.5,247.5C 296.262,246.738 297.262,245.404 297.5,243.5C 298.167,243.5 298.833,243.5 299.5,243.5C 300.065,241.614 301.065,239.947 302.5,238.5C 303.971,239.381 304.804,240.714 305,242.5C 305.915,240.02 307.415,239.353 309.5,240.5C 310.354,239.478 311.354,238.645 312.5,238C 316.337,237.239 320.004,237.739 323.5,239.5C 324.442,239.392 325.275,239.059 326,238.5C 327.242,240.541 329.075,241.707 331.5,242C 332.453,243.955 333.787,245.622 335.5,247C 330.456,248.311 326.789,246.644 324.5,242C 323.333,241.833 322.167,241.667 321,241.5C 316.856,242.956 312.689,244.456 308.5,246C 307.748,246.671 307.414,247.504 307.5,248.5 Z"/></g>
<g><path style="opacity:1" fill="#5f5c5a" d="M 216.5,236.5 C 222.524,238.179 228.524,240.179 234.5,242.5C 229.264,244.141 224.264,243.474 219.5,240.5C 218.504,240.586 217.671,240.252 217,239.5C 214.824,242.529 212.657,245.529 210.5,248.5C 209.167,248.5 207.833,248.5 206.5,248.5C 203.246,248.206 200.579,246.873 198.5,244.5C 198.5,244.167 198.5,243.833 198.5,243.5C 202.137,244.497 205.804,244.997 209.5,245C 211.255,241.636 213.588,238.802 216.5,236.5 Z"/></g>
<g><path style="opacity:1" fill="#17131a" d="M 287.5,248.5 C 287.337,250.857 287.503,253.19 288,255.5C 289.992,256.328 291.492,257.661 292.5,259.5C 290.319,259.716 288.653,258.883 287.5,257C 283.5,256.333 279.5,256.333 275.5,257C 272.252,261.4 269.252,265.9 266.5,270.5C 261.972,271.949 257.305,272.783 252.5,273C 249.898,273.883 247.731,275.383 246,277.5C 241.41,271.965 237.077,266.298 233,260.5C 232.311,257.067 233.145,254.067 235.5,251.5C 237.472,254.084 238.472,257.084 238.5,260.5C 245.532,260.83 252.532,260.497 259.5,259.5C 260.168,256.137 260.835,252.803 261.5,249.5C 262.496,249.586 263.329,249.252 264,248.5C 264.494,246.866 264.66,245.199 264.5,243.5C 270.594,243.256 276.594,242.756 282.5,242C 284.054,244.287 285.721,246.454 287.5,248.5 Z"/></g>
<g><path style="opacity:1" fill="#5e5c5a" d="M 297.5,243.5 C 297.262,245.404 296.262,246.738 294.5,247.5C 292.559,247.869 290.725,248.536 289,249.5C 288.617,248.944 288.117,248.611 287.5,248.5C 285.721,246.454 284.054,244.287 282.5,242C 276.594,242.756 270.594,243.256 264.5,243.5C 264.66,245.199 264.494,246.866 264,248.5C 263.329,249.252 262.496,249.586 261.5,249.5C 262.265,246.904 262.599,244.237 262.5,241.5C 264.553,241.598 266.22,240.931 267.5,239.5C 272.704,237.746 278.037,237.246 283.5,238C 285.712,240.921 287.545,244.088 289,247.5C 291.803,246.068 294.636,244.734 297.5,243.5 Z"/></g>
<g><path style="opacity:1" fill="#c1bcb3" d="M 229.5,227.5 C 234.47,228.353 239.47,229.02 244.5,229.5C 245.952,230.302 247.618,230.802 249.5,231C 248.748,231.671 248.414,232.504 248.5,233.5C 245.207,238.222 246.541,240.222 252.5,239.5C 252.167,237.5 251.833,235.5 251.5,233.5C 253.256,234.552 253.923,236.219 253.5,238.5C 254.5,238.5 255.5,238.5 256.5,238.5C 256.312,240.103 256.812,241.437 258,242.5C 258.009,237.042 260.343,233.042 265,230.5C 265.078,233.57 264.578,236.57 263.5,239.5C 264.833,239.5 266.167,239.5 267.5,239.5C 266.22,240.931 264.553,241.598 262.5,241.5C 262.599,244.237 262.265,246.904 261.5,249.5C 260.835,252.803 260.168,256.137 259.5,259.5C 252.532,260.497 245.532,260.83 238.5,260.5C 238.472,257.084 237.472,254.084 235.5,251.5C 235.81,248.287 235.477,245.287 234.5,242.5C 228.524,240.179 222.524,238.179 216.5,236.5C 217.873,236.657 219.207,236.49 220.5,236C 222.204,233.453 224.537,231.953 227.5,231.5C 227.34,233.199 227.506,234.866 228,236.5C 229.392,233.722 229.892,230.722 229.5,227.5 Z"/></g>
<g><path style="opacity:1" fill="#211c1b" d="M 248.5,233.5 C 249.5,233.5 250.5,233.5 251.5,233.5C 251.833,235.5 252.167,237.5 252.5,239.5C 246.541,240.222 245.207,238.222 248.5,233.5 Z"/></g>
<g><path style="opacity:1" fill="#140f13" d="M 219.5,240.5 C 217.221,242.959 215.054,245.626 213,248.5C 211.495,250.298 211.328,252.132 212.5,254C 212,254.167 211.5,254.333 211,254.5C 208.066,252.589 207.9,250.589 210.5,248.5C 212.657,245.529 214.824,242.529 217,239.5C 217.671,240.252 218.504,240.586 219.5,240.5 Z"/></g>
<g><path style="opacity:1" fill="#1b171d" d="M 198.5,244.5 C 200.579,246.873 203.246,248.206 206.5,248.5C 208.017,250.936 207.684,253.102 205.5,255C 207.249,256.292 209.082,257.458 211,258.5C 211.199,260.402 212.033,261.902 213.5,263C 210.697,263.755 208.03,263.422 205.5,262C 202.874,257.916 200.374,253.75 198,249.5C 197.22,247.613 197.387,245.946 198.5,244.5 Z"/></g>
<g><path style="opacity:1" fill="#2b262c" d="M 292.5,259.5 C 294.435,260.81 296.435,262.143 298.5,263.5C 297.5,263.833 296.5,264.167 295.5,264.5C 292.833,263.167 290.167,261.833 287.5,260.5C 279.365,257.327 275.365,259.993 275.5,268.5C 272.162,268.065 269.162,268.732 266.5,270.5C 269.252,265.9 272.252,261.4 275.5,257C 279.5,256.333 283.5,256.333 287.5,257C 288.653,258.883 290.319,259.716 292.5,259.5 Z"/></g>
<g><path style="opacity:1" fill="#f0f0ee" d="M 368.5,257.5 C 367.523,260.989 365.523,263.823 362.5,266C 353.391,267.11 344.224,267.61 335,267.5C 327.167,267.167 319.333,266.833 311.5,266.5C 312.371,263.304 314.038,260.637 316.5,258.5C 317.473,258.013 318.473,257.513 319.5,257C 336.005,256.172 352.339,256.338 368.5,257.5 Z"/></g>
<g><path style="opacity:1" fill="#666168" d="M 130.5,246.5 C 135.549,252.885 140.215,259.552 144.5,266.5C 143.833,266.167 143.167,265.833 142.5,265.5C 141.279,264.972 140.113,264.305 139,263.5C 135.485,257.99 131.985,252.49 128.5,247C 128.683,245.316 129.35,245.15 130.5,246.5 Z"/></g>
<g><path style="opacity:1" fill="#f3f2ee" d="M 346.5,276.5 C 346.5,277.5 346.5,278.5 346.5,279.5C 338.497,278.708 330.831,279.875 323.5,283C 322.619,283.708 321.953,284.542 321.5,285.5C 313.131,287.539 308.131,292.872 306.5,301.5C 305.518,300.859 304.518,300.193 303.5,299.5C 301.403,301.11 299.07,302.277 296.5,303C 295.874,303.75 295.374,304.584 295,305.5C 294.601,305.272 294.435,304.938 294.5,304.5C 295.113,300.488 293.446,298.488 289.5,298.5C 288.929,296.64 288.929,294.973 289.5,293.5C 293.192,292.971 293.858,291.471 291.5,289C 289.231,288.242 287.064,288.409 285,289.5C 284.506,287.866 284.34,286.199 284.5,284.5C 278.722,284.816 273.388,286.649 268.5,290C 266.527,290.495 264.527,290.662 262.5,290.5C 263.342,293.154 263.842,295.821 264,298.5C 261.869,299.615 260.035,300.948 258.5,302.5C 256.738,302.357 255.071,302.691 253.5,303.5C 252.833,302.833 252.167,302.167 251.5,301.5C 250.575,302.641 249.741,302.641 249,301.5C 247.667,304.167 246.333,306.833 245,309.5C 244.503,307.19 244.337,304.857 244.5,302.5C 245.929,296.975 248.429,291.975 252,287.5C 255.789,285.615 258.956,282.949 261.5,279.5C 262.795,278.902 264.128,278.402 265.5,278C 292.449,276.535 319.449,276.035 346.5,276.5 Z"/></g>
<g><path style="opacity:1" fill="#aba8a8" d="M 370.5,277.5 C 366.609,284.21 360.942,286.21 353.5,283.5C 352.508,283.672 351.842,283.338 351.5,282.5C 354.85,282.665 358.183,282.498 361.5,282C 362.171,281.014 362.171,279.847 361.5,278.5C 364.09,278.604 366.423,277.937 368.5,276.5C 369.416,276.543 370.083,276.876 370.5,277.5 Z"/></g>
<g><path style="opacity:1" fill="#cececc" d="M 346.5,276.5 C 351.275,278.147 356.275,278.814 361.5,278.5C 362.171,279.847 362.171,281.014 361.5,282C 358.183,282.498 354.85,282.665 351.5,282.5C 344.159,282.334 336.826,282.5 329.5,283C 327.1,283.744 324.767,284.577 322.5,285.5C 322.167,285.5 321.833,285.5 321.5,285.5C 321.953,284.542 322.619,283.708 323.5,283C 330.831,279.875 338.497,278.708 346.5,279.5C 346.5,278.5 346.5,277.5 346.5,276.5 Z"/></g>
<g><path style="opacity:1" fill="#141116" d="M 351.5,282.5 C 351.842,283.338 352.508,283.672 353.5,283.5C 352.202,288.131 349.202,291.131 344.5,292.5C 326.51,289.657 319.01,297.324 322,315.5C 322.465,316.931 323.299,318.097 324.5,319C 327.833,319.667 331.167,319.667 334.5,319C 336.032,318.3 337.032,317.134 337.5,315.5C 334.555,315.527 331.555,315.193 328.5,314.5C 323.82,307.73 325.153,302.564 332.5,299C 342,297.158 346.667,301.158 346.5,311C 345.429,326.058 337.429,332.058 322.5,329C 320.359,328.427 318.359,327.594 316.5,326.5C 310.858,320.26 309.025,312.927 311,304.5C 311.901,299.785 313.568,295.452 316,291.5C 318.832,290.038 320.999,288.038 322.5,285.5C 324.767,284.577 327.1,283.744 329.5,283C 336.826,282.5 344.159,282.334 351.5,282.5 Z"/></g>
<g><path style="opacity:1" fill="#363133" d="M 289.5,293.5 C 286.801,293.534 284.301,292.867 282,291.5C 281.283,292.044 280.783,292.711 280.5,293.5C 277.813,293.336 275.146,293.503 272.5,294C 271.74,295.441 271.074,296.941 270.5,298.5C 270.97,299.463 271.637,299.463 272.5,298.5C 271.833,303.833 274.167,306.167 279.5,305.5C 278.376,306.809 276.876,307.475 275,307.5C 273.2,306.622 271.367,305.955 269.5,305.5C 269.393,307.903 270.393,309.736 272.5,311C 275.482,311.498 278.482,311.665 281.5,311.5C 283.379,312.341 285.379,312.675 287.5,312.5C 284.437,313.699 281.437,315.199 278.5,317C 275.854,317.497 273.187,317.664 270.5,317.5C 270.785,315.712 270.452,314.045 269.5,312.5C 265.213,314.393 262.879,313.059 262.5,308.5C 263.289,308.217 263.956,307.717 264.5,307C 262.425,305.432 260.425,303.932 258.5,302.5C 260.035,300.948 261.869,299.615 264,298.5C 263.842,295.821 263.342,293.154 262.5,290.5C 264.527,290.662 266.527,290.495 268.5,290C 273.388,286.649 278.722,284.816 284.5,284.5C 284.34,286.199 284.506,287.866 285,289.5C 287.064,288.409 289.231,288.242 291.5,289C 293.858,291.471 293.192,292.971 289.5,293.5 Z"/></g>
<g><path style="opacity:1" fill="#a19d9e" d="M 142.5,265.5 C 143.167,265.833 143.833,266.167 144.5,266.5C 150.829,270.176 156.162,275.009 160.5,281C 174.605,291.055 189.938,299.055 206.5,305C 216.037,307.216 225.371,309.716 234.5,312.5C 233.688,313.993 232.355,314.66 230.5,314.5C 200.002,310.514 173.669,298.014 151.5,277C 147.459,273.815 144.459,269.981 142.5,265.5 Z"/></g>
<g><path style="opacity:1" fill="#7e7a7c" d="M 280.5,293.5 C 283.712,296.021 284.212,299.021 282,302.5C 281.617,301.944 281.117,301.611 280.5,301.5C 279.552,296.257 276.885,295.257 272.5,298.5C 271.637,299.463 270.97,299.463 270.5,298.5C 271.074,296.941 271.74,295.441 272.5,294C 275.146,293.503 277.813,293.336 280.5,293.5 Z"/></g>
<g><path style="opacity:1" fill="#171218" d="M 280.5,301.5 C 280.768,303.099 280.434,304.432 279.5,305.5C 274.167,306.167 271.833,303.833 272.5,298.5C 276.885,295.257 279.552,296.257 280.5,301.5 Z"/></g>
<g><path style="opacity:1" fill="#d9d7d3" d="M 344.5,292.5 C 349.893,297.623 352.893,303.956 353.5,311.5C 351.56,326.773 342.893,334.773 327.5,335.5C 321.186,335.608 315.852,333.608 311.5,329.5C 311.472,325.516 313.139,324.516 316.5,326.5C 318.359,327.594 320.359,328.427 322.5,329C 337.429,332.058 345.429,326.058 346.5,311C 346.667,301.158 342,297.158 332.5,299C 325.153,302.564 323.82,307.73 328.5,314.5C 331.555,315.193 334.555,315.527 337.5,315.5C 337.032,317.134 336.032,318.3 334.5,319C 331.167,319.667 327.833,319.667 324.5,319C 323.299,318.097 322.465,316.931 322,315.5C 319.01,297.324 326.51,289.657 344.5,292.5 Z"/></g>
<g><path style="opacity:1" fill="#cccac1" d="M 306.5,301.5 C 305.837,303.804 305.17,306.137 304.5,308.5C 302.577,309.308 300.577,309.808 298.5,310C 296.246,313.585 293.246,314.419 289.5,312.5C 288.361,309.996 287.694,307.33 287.5,304.5C 289.833,304.5 292.167,304.5 294.5,304.5C 294.435,304.938 294.601,305.272 295,305.5C 295.374,304.584 295.874,303.75 296.5,303C 299.07,302.277 301.403,301.11 303.5,299.5C 304.518,300.193 305.518,300.859 306.5,301.5 Z"/></g>
<g><path style="opacity:1" fill="#221f26" d="M 289.5,298.5 C 293.446,298.488 295.113,300.488 294.5,304.5C 292.167,304.5 289.833,304.5 287.5,304.5C 287.694,307.33 288.361,309.996 289.5,312.5C 288.833,312.5 288.167,312.5 287.5,312.5C 285.379,312.675 283.379,312.341 281.5,311.5C 281.275,309.284 282.108,307.617 284,306.5C 284.497,303.854 284.664,301.187 284.5,298.5C 286.167,298.5 287.833,298.5 289.5,298.5 Z"/></g>
<g><path style="opacity:1" fill="#4f4b51" d="M 289.5,293.5 C 288.929,294.973 288.929,296.64 289.5,298.5C 287.833,298.5 286.167,298.5 284.5,298.5C 284.664,301.187 284.497,303.854 284,306.5C 282.108,307.617 281.275,309.284 281.5,311.5C 278.482,311.665 275.482,311.498 272.5,311C 270.393,309.736 269.393,307.903 269.5,305.5C 271.367,305.955 273.2,306.622 275,307.5C 276.876,307.475 278.376,306.809 279.5,305.5C 280.434,304.432 280.768,303.099 280.5,301.5C 281.117,301.611 281.617,301.944 282,302.5C 284.212,299.021 283.712,296.021 280.5,293.5C 280.783,292.711 281.283,292.044 282,291.5C 284.301,292.867 286.801,293.534 289.5,293.5 Z"/></g>
<g><path style="opacity:1" fill="#c7c4bb" d="M 258.5,302.5 C 260.425,303.932 262.425,305.432 264.5,307C 263.956,307.717 263.289,308.217 262.5,308.5C 260.712,308.215 259.045,308.548 257.5,309.5C 254.717,313.039 251.217,314.039 247,312.5C 245.961,313.71 244.794,314.71 243.5,315.5C 242.616,311.035 242.95,306.702 244.5,302.5C 244.337,304.857 244.503,307.19 245,309.5C 246.333,306.833 247.667,304.167 249,301.5C 249.741,302.641 250.575,302.641 251.5,301.5C 252.167,302.167 252.833,302.833 253.5,303.5C 255.071,302.691 256.738,302.357 258.5,302.5 Z"/></g>
<g><path style="opacity:1" fill="#bab9b4" d="M 321.5,285.5 C 321.833,285.5 322.167,285.5 322.5,285.5C 320.999,288.038 318.832,290.038 316,291.5C 313.568,295.452 311.901,299.785 311,304.5C 309.025,312.927 310.858,320.26 316.5,326.5C 313.139,324.516 311.472,325.516 311.5,329.5C 309.269,326.164 307.603,322.497 306.5,318.5C 306.622,312.584 306.622,306.918 306.5,301.5C 308.131,292.872 313.131,287.539 321.5,285.5 Z"/></g>
<g><path style="opacity:0.471" fill="#9b979c" d="M 159.5,315.5 C 161.027,315.427 162.027,316.094 162.5,317.5C 160.973,317.573 159.973,316.906 159.5,315.5 Z"/></g>
<g><path style="opacity:1" fill="#a8a29a" d="M 306.5,301.5 C 306.622,306.918 306.622,312.584 306.5,318.5C 305.833,318.5 305.5,318.167 305.5,317.5C 304.968,314.54 304.301,314.207 303.5,316.5C 300.401,316.092 298.067,317.259 296.5,320C 292.865,321.925 289.198,323.759 285.5,325.5C 284.558,325.392 283.725,325.059 283,324.5C 280.464,326.945 277.797,326.945 275,324.5C 266.118,325.701 257.285,327.034 248.5,328.5C 246.597,325.02 244.93,321.354 243.5,317.5C 243.5,316.833 243.5,316.167 243.5,315.5C 244.794,314.71 245.961,313.71 247,312.5C 251.217,314.039 254.717,313.039 257.5,309.5C 259.045,308.548 260.712,308.215 262.5,308.5C 262.879,313.059 265.213,314.393 269.5,312.5C 270.452,314.045 270.785,315.712 270.5,317.5C 273.187,317.664 275.854,317.497 278.5,317C 281.437,315.199 284.437,313.699 287.5,312.5C 288.167,312.5 288.833,312.5 289.5,312.5C 293.246,314.419 296.246,313.585 298.5,310C 300.577,309.808 302.577,309.308 304.5,308.5C 305.17,306.137 305.837,303.804 306.5,301.5 Z"/></g>
<g><path style="opacity:0.447" fill="#a29fa3" d="M 162.5,317.5 C 164.027,317.427 165.027,318.094 165.5,319.5C 163.973,319.573 162.973,318.906 162.5,317.5 Z"/></g>
<g><path style="opacity:1" fill="#918e89" d="M 303.5,316.5 C 303.167,320.999 303.167,325.332 303.5,329.5C 295.981,329.175 288.648,329.508 281.5,330.5C 270.828,330.667 260.161,330.5 249.5,330C 248.944,329.617 248.611,329.117 248.5,328.5C 257.285,327.034 266.118,325.701 275,324.5C 277.797,326.945 280.464,326.945 283,324.5C 283.725,325.059 284.558,325.392 285.5,325.5C 289.198,323.759 292.865,321.925 296.5,320C 298.067,317.259 300.401,316.092 303.5,316.5 Z"/></g>
<g><path style="opacity:1" fill="#787679" d="M 305.5,317.5 C 303.587,322.125 304.587,326.125 308.5,329.5C 299.525,330.498 290.525,330.832 281.5,330.5C 288.648,329.508 295.981,329.175 303.5,329.5C 303.167,325.332 303.167,320.999 303.5,316.5C 304.301,314.207 304.968,314.54 305.5,317.5 Z"/></g>
</svg>
